<?xml version="1.0" encoding="utf-8" standalone="no"?>
<!DOCTYPE svg PUBLIC "-//W3C//DTD SVG 1.1//EN"
  "http://www.w3.org/Graphics/SVG/1.1/DTD/svg11.dtd">
<svg xmlns:xlink="http://www.w3.org/1999/xlink" width="460.8pt" height="345.6pt" viewBox="0 0 460.8 345.6" xmlns="http://www.w3.org/2000/svg" version="1.1">
 <metadata>
  <rdf:RDF xmlns:dc="http://purl.org/dc/elements/1.1/" xmlns:cc="http://creativecommons.org/ns#" xmlns:rdf="http://www.w3.org/1999/02/22-rdf-syntax-ns#">
   <cc:Work>
    <dc:type rdf:resource="http://purl.org/dc/dcmitype/StillImage"/>
    <dc:date>2025-03-06T06:44:37.770070</dc:date>
    <dc:format>image/svg+xml</dc:format>
    <dc:creator>
     <cc:Agent>
      <dc:title>Matplotlib v3.10.0, https://matplotlib.org/</dc:title>
     </cc:Agent>
    </dc:creator>
   </cc:Work>
  </rdf:RDF>
 </metadata>
 <defs>
  <style type="text/css">*{stroke-linejoin: round; stroke-linecap: butt}</style>
 </defs>
 <g id="figure_1">
  <g id="patch_1">
   <path d="M 0 345.6 
L 460.8 345.6 
L 460.8 0 
L 0 0 
z
" style="fill: #ffffff"/>
  </g>
  <g id="axes_1">
   <g id="patch_2">
    <path d="M 57.6 307.584 
L 414.72 307.584 
L 414.72 41.472 
L 57.6 41.472 
z
" style="fill: #ffffff"/>
   </g>
   <g id="PathCollection_1">
    <defs>
     <path id="m13d9ce76a2" d="M 0 3 
C 0.795609 3 1.55874 2.683901 2.12132 2.12132 
C 2.683901 1.55874 3 0.795609 3 0 
C 3 -0.795609 2.683901 -1.55874 2.12132 -2.12132 
C 1.55874 -2.683901 0.795609 -3 0 -3 
C -0.795609 -3 -1.55874 -2.683901 -2.12132 -2.12132 
C -2.683901 -1.55874 -3 -0.795609 -3 0 
C -3 0.795609 -2.683901 1.55874 -2.12132 2.12132 
C -1.55874 2.683901 -0.795609 3 0 3 
z
" style="stroke: #000000"/>
    </defs>
    <g clip-path="url(#pe450b0a842)">
     <use xlink:href="#m13d9ce76a2" x="240.35199" y="247.651256" style="fill: #ffffff; stroke: #000000"/>
     <use xlink:href="#m13d9ce76a2" x="302.870109" y="219.94313" style="fill: #ffffff; stroke: #000000"/>
     <use xlink:href="#m13d9ce76a2" x="333.847053" y="214.357513" style="fill: #ffffff; stroke: #000000"/>
     <use xlink:href="#m13d9ce76a2" x="364.616683" y="213.36151" style="fill: #ffffff; stroke: #000000"/>
     <use xlink:href="#m13d9ce76a2" x="374.770741" y="198.659641" style="fill: #ffffff; stroke: #000000"/>
     <use xlink:href="#m13d9ce76a2" x="375.590248" y="191.846652" style="fill: #ffffff; stroke: #000000"/>
     <use xlink:href="#m13d9ce76a2" x="376.489596" y="205.179493" style="fill: #ffffff; stroke: #000000"/>
     <use xlink:href="#m13d9ce76a2" x="321.114758" y="173.136369" style="fill: #ffffff; stroke: #000000"/>
     <use xlink:href="#m13d9ce76a2" x="332.33641" y="166.611525" style="fill: #ffffff; stroke: #000000"/>
     <use xlink:href="#m13d9ce76a2" x="383.544599" y="144.614904" style="fill: #ffffff; stroke: #000000"/>
     <use xlink:href="#m13d9ce76a2" x="390.961297" y="144.932148" style="fill: #ffffff; stroke: #000000"/>
     <use xlink:href="#m13d9ce76a2" x="380.139523" y="150.000238" style="fill: #ffffff; stroke: #000000"/>
     <use xlink:href="#m13d9ce76a2" x="386.009233" y="144.605702" style="fill: #ffffff; stroke: #000000"/>
     <use xlink:href="#m13d9ce76a2" x="391.812829" y="113.838595" style="fill: #ffffff; stroke: #000000"/>
     <use xlink:href="#m13d9ce76a2" x="266.26681" y="227.092221" style="fill: #ffffff; stroke: #000000"/>
     <use xlink:href="#m13d9ce76a2" x="312.939835" y="222.123135" style="fill: #ffffff; stroke: #000000"/>
     <use xlink:href="#m13d9ce76a2" x="351.754361" y="221.641707" style="fill: #ffffff; stroke: #000000"/>
     <use xlink:href="#m13d9ce76a2" x="363.970763" y="208.301222" style="fill: #ffffff; stroke: #000000"/>
     <use xlink:href="#m13d9ce76a2" x="364.885273" y="201.825718" style="fill: #ffffff; stroke: #000000"/>
     <use xlink:href="#m13d9ce76a2" x="366.101536" y="214.05508" style="fill: #ffffff; stroke: #000000"/>
     <use xlink:href="#m13d9ce76a2" x="302.587595" y="179.745449" style="fill: #ffffff; stroke: #000000"/>
     <use xlink:href="#m13d9ce76a2" x="318.033313" y="174.190623" style="fill: #ffffff; stroke: #000000"/>
     <use xlink:href="#m13d9ce76a2" x="375.199412" y="154.819005" style="fill: #ffffff; stroke: #000000"/>
     <use xlink:href="#m13d9ce76a2" x="383.624937" y="154.732786" style="fill: #ffffff; stroke: #000000"/>
     <use xlink:href="#m13d9ce76a2" x="372.824348" y="159.940162" style="fill: #ffffff; stroke: #000000"/>
     <use xlink:href="#m13d9ce76a2" x="379.318604" y="155.000751" style="fill: #ffffff; stroke: #000000"/>
     <use xlink:href="#m13d9ce76a2" x="387.224301" y="124.595876" style="fill: #ffffff; stroke: #000000"/>
     <use xlink:href="#m13d9ce76a2" x="261.560185" y="236.134411" style="fill: #ffffff; stroke: #000000"/>
     <use xlink:href="#m13d9ce76a2" x="326.589065" y="233.219807" style="fill: #ffffff; stroke: #000000"/>
     <use xlink:href="#m13d9ce76a2" x="343.516457" y="227.915993" style="fill: #ffffff; stroke: #000000"/>
     <use xlink:href="#m13d9ce76a2" x="344.711195" y="220.225574" style="fill: #ffffff; stroke: #000000"/>
     <use xlink:href="#m13d9ce76a2" x="346.434901" y="230.229341" style="fill: #ffffff; stroke: #000000"/>
     <use xlink:href="#m13d9ce76a2" x="267.950912" y="177.881035" style="fill: #ffffff; stroke: #000000"/>
     <use xlink:href="#m13d9ce76a2" x="291.331047" y="180.166206" style="fill: #ffffff; stroke: #000000"/>
     <use xlink:href="#m13d9ce76a2" x="359.269683" y="177.073225" style="fill: #ffffff; stroke: #000000"/>
     <use xlink:href="#m13d9ce76a2" x="369.775307" y="175.1168" style="fill: #ffffff; stroke: #000000"/>
     <use xlink:href="#m13d9ce76a2" x="358.518358" y="180.409382" style="fill: #ffffff; stroke: #000000"/>
     <use xlink:href="#m13d9ce76a2" x="366.282406" y="177.185774" style="fill: #ffffff; stroke: #000000"/>
     <use xlink:href="#m13d9ce76a2" x="377.870173" y="148.34362" style="fill: #ffffff; stroke: #000000"/>
     <use xlink:href="#m13d9ce76a2" x="290.735566" y="245.678476" style="fill: #ffffff; stroke: #000000"/>
     <use xlink:href="#m13d9ce76a2" x="316.782185" y="242.879539" style="fill: #ffffff; stroke: #000000"/>
     <use xlink:href="#m13d9ce76a2" x="318.531443" y="232.959685" style="fill: #ffffff; stroke: #000000"/>
     <use xlink:href="#m13d9ce76a2" x="321.013458" y="244.495682" style="fill: #ffffff; stroke: #000000"/>
     <use xlink:href="#m13d9ce76a2" x="267.253409" y="176.284143" style="fill: #ffffff; stroke: #000000"/>
     <use xlink:href="#m13d9ce76a2" x="278.941528" y="181.379342" style="fill: #ffffff; stroke: #000000"/>
     <use xlink:href="#m13d9ce76a2" x="339.956174" y="184.538847" style="fill: #ffffff; stroke: #000000"/>
     <use xlink:href="#m13d9ce76a2" x="353.500126" y="182.591666" style="fill: #ffffff; stroke: #000000"/>
     <use xlink:href="#m13d9ce76a2" x="342.252103" y="187.011739" style="fill: #ffffff; stroke: #000000"/>
     <use xlink:href="#m13d9ce76a2" x="351.520472" y="184.213848" style="fill: #ffffff; stroke: #000000"/>
     <use xlink:href="#m13d9ce76a2" x="368.000655" y="157.068332" style="fill: #ffffff; stroke: #000000"/>
     <use xlink:href="#m13d9ce76a2" x="236.377135" y="250.573907" style="fill: #ffffff; stroke: #000000"/>
     <use xlink:href="#m13d9ce76a2" x="240.664221" y="245.112374" style="fill: #ffffff; stroke: #000000"/>
     <use xlink:href="#m13d9ce76a2" x="251.339133" y="251.284675" style="fill: #ffffff; stroke: #000000"/>
     <use xlink:href="#m13d9ce76a2" x="320.497872" y="177.211935" style="fill: #ffffff; stroke: #000000"/>
     <use xlink:href="#m13d9ce76a2" x="317.52337" y="178.285496" style="fill: #ffffff; stroke: #000000"/>
     <use xlink:href="#m13d9ce76a2" x="304.819846" y="185.372636" style="fill: #ffffff; stroke: #000000"/>
     <use xlink:href="#m13d9ce76a2" x="324.710171" y="182.468399" style="fill: #ffffff; stroke: #000000"/>
     <use xlink:href="#m13d9ce76a2" x="323.39109" y="189.054825" style="fill: #ffffff; stroke: #000000"/>
     <use xlink:href="#m13d9ce76a2" x="332.428713" y="186.490651" style="fill: #ffffff; stroke: #000000"/>
     <use xlink:href="#m13d9ce76a2" x="358.322403" y="155.382087" style="fill: #ffffff; stroke: #000000"/>
     <use xlink:href="#m13d9ce76a2" x="73.832727" y="251.498247" style="fill: #ffffff; stroke: #000000"/>
     <use xlink:href="#m13d9ce76a2" x="143.077644" y="254.540584" style="fill: #ffffff; stroke: #000000"/>
     <use xlink:href="#m13d9ce76a2" x="335.663051" y="168.011474" style="fill: #ffffff; stroke: #000000"/>
     <use xlink:href="#m13d9ce76a2" x="331.086865" y="171.394516" style="fill: #ffffff; stroke: #000000"/>
     <use xlink:href="#m13d9ce76a2" x="279.559905" y="185.743928" style="fill: #ffffff; stroke: #000000"/>
     <use xlink:href="#m13d9ce76a2" x="304.160543" y="181.920455" style="fill: #ffffff; stroke: #000000"/>
     <use xlink:href="#m13d9ce76a2" x="313.198356" y="188.88594" style="fill: #ffffff; stroke: #000000"/>
     <use xlink:href="#m13d9ce76a2" x="320.708167" y="186.969415" style="fill: #ffffff; stroke: #000000"/>
     <use xlink:href="#m13d9ce76a2" x="351.826259" y="155.345207" style="fill: #ffffff; stroke: #000000"/>
     <use xlink:href="#m13d9ce76a2" x="146.121099" y="250.270083" style="fill: #ffffff; stroke: #000000"/>
     <use xlink:href="#m13d9ce76a2" x="337.298291" y="164.68834" style="fill: #ffffff; stroke: #000000"/>
     <use xlink:href="#m13d9ce76a2" x="332.902889" y="164.143428" style="fill: #ffffff; stroke: #000000"/>
     <use xlink:href="#m13d9ce76a2" x="280.370267" y="178.385686" style="fill: #ffffff; stroke: #000000"/>
     <use xlink:href="#m13d9ce76a2" x="304.096984" y="172.814457" style="fill: #ffffff; stroke: #000000"/>
     <use xlink:href="#m13d9ce76a2" x="314.590131" y="182.89736" style="fill: #ffffff; stroke: #000000"/>
     <use xlink:href="#m13d9ce76a2" x="321.619275" y="181.281617" style="fill: #ffffff; stroke: #000000"/>
     <use xlink:href="#m13d9ce76a2" x="352.512085" y="144.027628" style="fill: #ffffff; stroke: #000000"/>
     <use xlink:href="#m13d9ce76a2" x="337.647777" y="173.484535" style="fill: #ffffff; stroke: #000000"/>
     <use xlink:href="#m13d9ce76a2" x="332.533491" y="176.61026" style="fill: #ffffff; stroke: #000000"/>
     <use xlink:href="#m13d9ce76a2" x="268.863051" y="189.239955" style="fill: #ffffff; stroke: #000000"/>
     <use xlink:href="#m13d9ce76a2" x="296.473226" y="186.135115" style="fill: #ffffff; stroke: #000000"/>
     <use xlink:href="#m13d9ce76a2" x="308.142192" y="192.391213" style="fill: #ffffff; stroke: #000000"/>
     <use xlink:href="#m13d9ce76a2" x="315.489021" y="190.105374" style="fill: #ffffff; stroke: #000000"/>
     <use xlink:href="#m13d9ce76a2" x="348.666728" y="159.680301" style="fill: #ffffff; stroke: #000000"/>
     <use xlink:href="#m13d9ce76a2" x="204.43285" y="227.752117" style="fill: #ffffff; stroke: #000000"/>
     <use xlink:href="#m13d9ce76a2" x="346.12078" y="172.942771" style="fill: #ffffff; stroke: #000000"/>
     <use xlink:href="#m13d9ce76a2" x="358.081827" y="170.776017" style="fill: #ffffff; stroke: #000000"/>
     <use xlink:href="#m13d9ce76a2" x="340.127424" y="176.854509" style="fill: #ffffff; stroke: #000000"/>
     <use xlink:href="#m13d9ce76a2" x="350.176113" y="172.517014" style="fill: #ffffff; stroke: #000000"/>
     <use xlink:href="#m13d9ce76a2" x="362.15658" y="141.774216" style="fill: #ffffff; stroke: #000000"/>
     <use xlink:href="#m13d9ce76a2" x="338.576587" y="185.88896" style="fill: #ffffff; stroke: #000000"/>
     <use xlink:href="#m13d9ce76a2" x="351.385738" y="185.568768" style="fill: #ffffff; stroke: #000000"/>
     <use xlink:href="#m13d9ce76a2" x="329.730511" y="188.705921" style="fill: #ffffff; stroke: #000000"/>
     <use xlink:href="#m13d9ce76a2" x="341.224707" y="184.874586" style="fill: #ffffff; stroke: #000000"/>
     <use xlink:href="#m13d9ce76a2" x="354.081351" y="160.5282" style="fill: #ffffff; stroke: #000000"/>
     <use xlink:href="#m13d9ce76a2" x="229.652552" y="245.223758" style="fill: #ffffff; stroke: #000000"/>
     <use xlink:href="#m13d9ce76a2" x="264.255353" y="248.239829" style="fill: #ffffff; stroke: #000000"/>
     <use xlink:href="#m13d9ce76a2" x="267.890666" y="246.715045" style="fill: #ffffff; stroke: #000000"/>
     <use xlink:href="#m13d9ce76a2" x="323.159367" y="213.924584" style="fill: #ffffff; stroke: #000000"/>
     <use xlink:href="#m13d9ce76a2" x="277.718023" y="250.721416" style="fill: #ffffff; stroke: #000000"/>
     <use xlink:href="#m13d9ce76a2" x="265.07454" y="251.482131" style="fill: #ffffff; stroke: #000000"/>
     <use xlink:href="#m13d9ce76a2" x="318.036905" y="221.114156" style="fill: #ffffff; stroke: #000000"/>
     <use xlink:href="#m13d9ce76a2" x="206.884464" y="254.056436" style="fill: #ffffff; stroke: #000000"/>
     <use xlink:href="#m13d9ce76a2" x="291.559695" y="215.57741" style="fill: #ffffff; stroke: #000000"/>
     <use xlink:href="#m13d9ce76a2" x="279.78328" y="215.468469" style="fill: #ffffff; stroke: #000000"/>
    </g>
   </g>
   <g id="PathCollection_2">
    <defs>
     <path id="m802b551031" d="M 0 3 
C 0.795609 3 1.55874 2.683901 2.12132 2.12132 
C 2.683901 1.55874 3 0.795609 3 0 
C 3 -0.795609 2.683901 -1.55874 2.12132 -2.12132 
C 1.55874 -2.683901 0.795609 -3 0 -3 
C -0.795609 -3 -1.55874 -2.683901 -2.12132 -2.12132 
C -2.683901 -1.55874 -3 -0.795609 -3 0 
C -3 0.795609 -2.683901 1.55874 -2.12132 2.12132 
C -1.55874 2.683901 -0.795609 3 0 3 
z
" style="stroke: #2ca02c"/>
    </defs>
    <g clip-path="url(#pe450b0a842)">
     <use xlink:href="#m802b551031" x="211.415593" y="125.350901" style="fill: #ffffff; stroke: #2ca02c"/>
     <use xlink:href="#m802b551031" x="238.717767" y="136.811397" style="fill: #ffffff; stroke: #2ca02c"/>
     <use xlink:href="#m802b551031" x="301.554924" y="156.951422" style="fill: #ffffff; stroke: #2ca02c"/>
     <use xlink:href="#m802b551031" x="333.420414" y="158.128877" style="fill: #ffffff; stroke: #2ca02c"/>
     <use xlink:href="#m802b551031" x="364.120814" y="167.23238" style="fill: #ffffff; stroke: #2ca02c"/>
     <use xlink:href="#m802b551031" x="374.662551" y="167.525516" style="fill: #ffffff; stroke: #2ca02c"/>
     <use xlink:href="#m802b551031" x="375.417172" y="169.249752" style="fill: #ffffff; stroke: #2ca02c"/>
     <use xlink:href="#m802b551031" x="376.58524" y="165.879569" style="fill: #ffffff; stroke: #2ca02c"/>
     <use xlink:href="#m802b551031" x="326.383754" y="85.824022" style="fill: #ffffff; stroke: #2ca02c"/>
     <use xlink:href="#m802b551031" x="337.574384" y="84.361687" style="fill: #ffffff; stroke: #2ca02c"/>
     <use xlink:href="#m802b551031" x="384.80419" y="94.181267" style="fill: #ffffff; stroke: #2ca02c"/>
     <use xlink:href="#m802b551031" x="392.225475" y="87.014735" style="fill: #ffffff; stroke: #2ca02c"/>
     <use xlink:href="#m802b551031" x="382.671453" y="99.638985" style="fill: #ffffff; stroke: #2ca02c"/>
     <use xlink:href="#m802b551031" x="388.358108" y="97.615747" style="fill: #ffffff; stroke: #2ca02c"/>
     <use xlink:href="#m802b551031" x="394.964637" y="53.568" style="fill: #ffffff; stroke: #2ca02c"/>
    </g>
   </g>
   <g id="PathCollection_3">
    <defs>
     <path id="m88944fc72a" d="M 0 3 
C 0.795609 3 1.55874 2.683901 2.12132 2.12132 
C 2.683901 1.55874 3 0.795609 3 0 
C 3 -0.795609 2.683901 -1.55874 2.12132 -2.12132 
C 1.55874 -2.683901 0.795609 -3 0 -3 
C -0.795609 -3 -1.55874 -2.683901 -2.12132 -2.12132 
C -2.683901 -1.55874 -3 -0.795609 -3 0 
C -3 0.795609 -2.683901 1.55874 -2.12132 2.12132 
C -1.55874 2.683901 -0.795609 3 0 3 
z
" style="stroke: #d1985a"/>
    </defs>
    <g clip-path="url(#pe450b0a842)">
     <use xlink:href="#m88944fc72a" x="215.902376" y="173.511298" style="fill: #ffffff; stroke: #d1985a"/>
     <use xlink:href="#m88944fc72a" x="154.668147" y="183.456292" style="fill: #ffffff; stroke: #d1985a"/>
     <use xlink:href="#m88944fc72a" x="278.514559" y="204.266479" style="fill: #ffffff; stroke: #d1985a"/>
     <use xlink:href="#m88944fc72a" x="319.32549" y="210.877897" style="fill: #ffffff; stroke: #d1985a"/>
     <use xlink:href="#m88944fc72a" x="355.555682" y="208.30076" style="fill: #ffffff; stroke: #d1985a"/>
     <use xlink:href="#m88944fc72a" x="367.092223" y="206.313922" style="fill: #ffffff; stroke: #d1985a"/>
     <use xlink:href="#m88944fc72a" x="367.985683" y="194.189405" style="fill: #ffffff; stroke: #d1985a"/>
     <use xlink:href="#m88944fc72a" x="369.074151" y="207.850687" style="fill: #ffffff; stroke: #d1985a"/>
     <use xlink:href="#m88944fc72a" x="307.01914" y="136.212433" style="fill: #ffffff; stroke: #d1985a"/>
     <use xlink:href="#m88944fc72a" x="321.267054" y="144.670268" style="fill: #ffffff; stroke: #d1985a"/>
     <use xlink:href="#m88944fc72a" x="377.425356" y="153.670517" style="fill: #ffffff; stroke: #d1985a"/>
     <use xlink:href="#m88944fc72a" x="385.559658" y="151.771937" style="fill: #ffffff; stroke: #d1985a"/>
     <use xlink:href="#m88944fc72a" x="374.587902" y="156.237528" style="fill: #ffffff; stroke: #d1985a"/>
     <use xlink:href="#m88944fc72a" x="380.932384" y="153.762828" style="fill: #ffffff; stroke: #d1985a"/>
     <use xlink:href="#m88944fc72a" x="388.152741" y="125.800187" style="fill: #ffffff; stroke: #d1985a"/>
    </g>
   </g>
   <g id="PathCollection_4">
    <defs>
     <path id="m4d03e1d8e4" d="M 0 3 
C 0.795609 3 1.55874 2.683901 2.12132 2.12132 
C 2.683901 1.55874 3 0.795609 3 0 
C 3 -0.795609 2.683901 -1.55874 2.12132 -2.12132 
C 1.55874 -2.683901 0.795609 -3 0 -3 
C -0.795609 -3 -1.55874 -2.683901 -2.12132 -2.12132 
C -2.683901 -1.55874 -3 -0.795609 -3 0 
C -3 0.795609 -2.683901 1.55874 -2.12132 2.12132 
C -1.55874 2.683901 -0.795609 3 0 3 
z
" style="stroke: #02715b"/>
    </defs>
    <g clip-path="url(#pe450b0a842)">
     <use xlink:href="#m4d03e1d8e4" x="248.252328" y="195.568329" style="fill: #ffffff; stroke: #02715b"/>
     <use xlink:href="#m4d03e1d8e4" x="258.331712" y="204.60293" style="fill: #ffffff; stroke: #02715b"/>
     <use xlink:href="#m4d03e1d8e4" x="307.004604" y="223.563029" style="fill: #ffffff; stroke: #02715b"/>
     <use xlink:href="#m4d03e1d8e4" x="336.560225" y="229.56189" style="fill: #ffffff; stroke: #02715b"/>
     <use xlink:href="#m4d03e1d8e4" x="365.74682" y="227.298163" style="fill: #ffffff; stroke: #02715b"/>
     <use xlink:href="#m4d03e1d8e4" x="376.205437" y="225.686955" style="fill: #ffffff; stroke: #02715b"/>
     <use xlink:href="#m4d03e1d8e4" x="376.896824" y="214.523283" style="fill: #ffffff; stroke: #02715b"/>
     <use xlink:href="#m4d03e1d8e4" x="378.204342" y="227.038239" style="fill: #ffffff; stroke: #02715b"/>
     <use xlink:href="#m4d03e1d8e4" x="332.888068" y="162.091066" style="fill: #ffffff; stroke: #02715b"/>
     <use xlink:href="#m4d03e1d8e4" x="343.37891" y="169.467139" style="fill: #ffffff; stroke: #02715b"/>
     <use xlink:href="#m4d03e1d8e4" x="386.919981" y="177.604929" style="fill: #ffffff; stroke: #02715b"/>
     <use xlink:href="#m4d03e1d8e4" x="394.182828" y="175.850323" style="fill: #ffffff; stroke: #02715b"/>
     <use xlink:href="#m4d03e1d8e4" x="385.528092" y="179.96902" style="fill: #ffffff; stroke: #02715b"/>
     <use xlink:href="#m4d03e1d8e4" x="390.989213" y="177.753573" style="fill: #ffffff; stroke: #02715b"/>
     <use xlink:href="#m4d03e1d8e4" x="397.84922" y="152.350887" style="fill: #ffffff; stroke: #02715b"/>
    </g>
   </g>
   <g id="PathCollection_5">
    <defs>
     <path id="mc60acb2fc3" d="M 0 3 
C 0.795609 3 1.55874 2.683901 2.12132 2.12132 
C 2.683901 1.55874 3 0.795609 3 0 
C 3 -0.795609 2.683901 -1.55874 2.12132 -2.12132 
C 1.55874 -2.683901 0.795609 -3 0 -3 
C -0.795609 -3 -1.55874 -2.683901 -2.12132 -2.12132 
C -2.683901 -1.55874 -3 -0.795609 -3 0 
C -3 0.795609 -2.683901 1.55874 -2.12132 2.12132 
C -1.55874 2.683901 -0.795609 3 0 3 
z
" style="stroke: #98df8a"/>
    </defs>
    <g clip-path="url(#pe450b0a842)">
     <use xlink:href="#mc60acb2fc3" x="249.603485" y="208.899516" style="fill: #ffffff; stroke: #98df8a"/>
     <use xlink:href="#mc60acb2fc3" x="262.978472" y="218.071648" style="fill: #ffffff; stroke: #98df8a"/>
     <use xlink:href="#mc60acb2fc3" x="309.71608" y="236.460066" style="fill: #ffffff; stroke: #98df8a"/>
     <use xlink:href="#mc60acb2fc3" x="338.377003" y="240.45442" style="fill: #ffffff; stroke: #98df8a"/>
     <use xlink:href="#mc60acb2fc3" x="366.961072" y="242.504586" style="fill: #ffffff; stroke: #98df8a"/>
     <use xlink:href="#mc60acb2fc3" x="377.253957" y="241.954389" style="fill: #ffffff; stroke: #98df8a"/>
     <use xlink:href="#mc60acb2fc3" x="377.93543" y="236.753443" style="fill: #ffffff; stroke: #98df8a"/>
     <use xlink:href="#mc60acb2fc3" x="379.222988" y="241.882016" style="fill: #ffffff; stroke: #98df8a"/>
     <use xlink:href="#mc60acb2fc3" x="334.589408" y="178.487529" style="fill: #ffffff; stroke: #98df8a"/>
     <use xlink:href="#mc60acb2fc3" x="344.822865" y="181.685668" style="fill: #ffffff; stroke: #98df8a"/>
     <use xlink:href="#mc60acb2fc3" x="387.80085" y="189.671401" style="fill: #ffffff; stroke: #98df8a"/>
     <use xlink:href="#mc60acb2fc3" x="394.976118" y="186.221005" style="fill: #ffffff; stroke: #98df8a"/>
     <use xlink:href="#mc60acb2fc3" x="386.371057" y="192.845854" style="fill: #ffffff; stroke: #98df8a"/>
     <use xlink:href="#mc60acb2fc3" x="391.771632" y="191.031756" style="fill: #ffffff; stroke: #98df8a"/>
     <use xlink:href="#mc60acb2fc3" x="398.487273" y="161.424539" style="fill: #ffffff; stroke: #98df8a"/>
    </g>
   </g>
   <g id="PathCollection_6">
    <defs>
     <path id="m706b1abd9b" d="M 0 3 
C 0.795609 3 1.55874 2.683901 2.12132 2.12132 
C 2.683901 1.55874 3 0.795609 3 0 
C 3 -0.795609 2.683901 -1.55874 2.12132 -2.12132 
C 1.55874 -2.683901 0.795609 -3 0 -3 
C -0.795609 -3 -1.55874 -2.683901 -2.12132 -2.12132 
C -2.683901 -1.55874 -3 -0.795609 -3 0 
C -3 0.795609 -2.683901 1.55874 -2.12132 2.12132 
C -1.55874 2.683901 -0.795609 3 0 3 
z
" style="stroke: #17becf"/>
    </defs>
    <g clip-path="url(#pe450b0a842)">
     <use xlink:href="#m706b1abd9b" x="391.812829" y="113.838595" style="fill: #ffffff; stroke: #17becf"/>
     <use xlink:href="#m706b1abd9b" x="387.224301" y="124.595876" style="fill: #ffffff; stroke: #17becf"/>
     <use xlink:href="#m706b1abd9b" x="377.870173" y="148.34362" style="fill: #ffffff; stroke: #17becf"/>
     <use xlink:href="#m706b1abd9b" x="368.000655" y="157.068332" style="fill: #ffffff; stroke: #17becf"/>
     <use xlink:href="#m706b1abd9b" x="358.322403" y="155.382087" style="fill: #ffffff; stroke: #17becf"/>
     <use xlink:href="#m706b1abd9b" x="351.826259" y="155.345207" style="fill: #ffffff; stroke: #17becf"/>
     <use xlink:href="#m706b1abd9b" x="352.512085" y="144.027628" style="fill: #ffffff; stroke: #17becf"/>
     <use xlink:href="#m706b1abd9b" x="348.666728" y="159.680301" style="fill: #ffffff; stroke: #17becf"/>
     <use xlink:href="#m706b1abd9b" x="362.15658" y="141.774216" style="fill: #ffffff; stroke: #17becf"/>
     <use xlink:href="#m706b1abd9b" x="354.081351" y="160.5282" style="fill: #ffffff; stroke: #17becf"/>
     <use xlink:href="#m706b1abd9b" x="323.159367" y="213.924584" style="fill: #ffffff; stroke: #17becf"/>
     <use xlink:href="#m706b1abd9b" x="318.036905" y="221.114156" style="fill: #ffffff; stroke: #17becf"/>
     <use xlink:href="#m706b1abd9b" x="291.559695" y="215.57741" style="fill: #ffffff; stroke: #17becf"/>
     <use xlink:href="#m706b1abd9b" x="279.78328" y="215.468469" style="fill: #ffffff; stroke: #17becf"/>
    </g>
   </g>
   <g id="matplotlib.axis_1">
    <g id="xtick_1">
     <g id="line2d_1">
      <defs>
       <path id="m240990a020" d="M 0 0 
L 0 3.5 
" style="stroke: #000000; stroke-width: 0.8"/>
      </defs>
      <g>
       <use xlink:href="#m240990a020" x="70.557598" y="307.584" style="stroke: #000000; stroke-width: 0.8"/>
      </g>
     </g>
     <g id="text_1">
      <!-- 4 -->
      <g transform="translate(67.376348 322.182437) scale(0.1 -0.1)">
       <defs>
        <path id="DejaVuSans-34" d="M 2419 4116 
L 825 1625 
L 2419 1625 
L 2419 4116 
z
M 2253 4666 
L 3047 4666 
L 3047 1625 
L 3713 1625 
L 3713 1100 
L 3047 1100 
L 3047 0 
L 2419 0 
L 2419 1100 
L 313 1100 
L 313 1709 
L 2253 4666 
z
" transform="scale(0.015625)"/>
       </defs>
       <use xlink:href="#DejaVuSans-34"/>
      </g>
     </g>
    </g>
    <g id="xtick_2">
     <g id="line2d_2">
      <g>
       <use xlink:href="#m240990a020" x="141.390431" y="307.584" style="stroke: #000000; stroke-width: 0.8"/>
      </g>
     </g>
     <g id="text_2">
      <!-- 5 -->
      <g transform="translate(138.209181 322.182437) scale(0.1 -0.1)">
       <defs>
        <path id="DejaVuSans-35" d="M 691 4666 
L 3169 4666 
L 3169 4134 
L 1269 4134 
L 1269 2991 
Q 1406 3038 1543 3061 
Q 1681 3084 1819 3084 
Q 2600 3084 3056 2656 
Q 3513 2228 3513 1497 
Q 3513 744 3044 326 
Q 2575 -91 1722 -91 
Q 1428 -91 1123 -41 
Q 819 9 494 109 
L 494 744 
Q 775 591 1075 516 
Q 1375 441 1709 441 
Q 2250 441 2565 725 
Q 2881 1009 2881 1497 
Q 2881 1984 2565 2268 
Q 2250 2553 1709 2553 
Q 1456 2553 1204 2497 
Q 953 2441 691 2322 
L 691 4666 
z
" transform="scale(0.015625)"/>
       </defs>
       <use xlink:href="#DejaVuSans-35"/>
      </g>
     </g>
    </g>
    <g id="xtick_3">
     <g id="line2d_3">
      <g>
       <use xlink:href="#m240990a020" x="212.223265" y="307.584" style="stroke: #000000; stroke-width: 0.8"/>
      </g>
     </g>
     <g id="text_3">
      <!-- 6 -->
      <g transform="translate(209.042015 322.182437) scale(0.1 -0.1)">
       <defs>
        <path id="DejaVuSans-36" d="M 2113 2584 
Q 1688 2584 1439 2293 
Q 1191 2003 1191 1497 
Q 1191 994 1439 701 
Q 1688 409 2113 409 
Q 2538 409 2786 701 
Q 3034 994 3034 1497 
Q 3034 2003 2786 2293 
Q 2538 2584 2113 2584 
z
M 3366 4563 
L 3366 3988 
Q 3128 4100 2886 4159 
Q 2644 4219 2406 4219 
Q 1781 4219 1451 3797 
Q 1122 3375 1075 2522 
Q 1259 2794 1537 2939 
Q 1816 3084 2150 3084 
Q 2853 3084 3261 2657 
Q 3669 2231 3669 1497 
Q 3669 778 3244 343 
Q 2819 -91 2113 -91 
Q 1303 -91 875 529 
Q 447 1150 447 2328 
Q 447 3434 972 4092 
Q 1497 4750 2381 4750 
Q 2619 4750 2861 4703 
Q 3103 4656 3366 4563 
z
" transform="scale(0.015625)"/>
       </defs>
       <use xlink:href="#DejaVuSans-36"/>
      </g>
     </g>
    </g>
    <g id="xtick_4">
     <g id="line2d_4">
      <g>
       <use xlink:href="#m240990a020" x="283.056098" y="307.584" style="stroke: #000000; stroke-width: 0.8"/>
      </g>
     </g>
     <g id="text_4">
      <!-- 7 -->
      <g transform="translate(279.874848 322.182437) scale(0.1 -0.1)">
       <defs>
        <path id="DejaVuSans-37" d="M 525 4666 
L 3525 4666 
L 3525 4397 
L 1831 0 
L 1172 0 
L 2766 4134 
L 525 4134 
L 525 4666 
z
" transform="scale(0.015625)"/>
       </defs>
       <use xlink:href="#DejaVuSans-37"/>
      </g>
     </g>
    </g>
    <g id="xtick_5">
     <g id="line2d_5">
      <g>
       <use xlink:href="#m240990a020" x="353.888932" y="307.584" style="stroke: #000000; stroke-width: 0.8"/>
      </g>
     </g>
     <g id="text_5">
      <!-- 8 -->
      <g transform="translate(350.707682 322.182437) scale(0.1 -0.1)">
       <defs>
        <path id="DejaVuSans-38" d="M 2034 2216 
Q 1584 2216 1326 1975 
Q 1069 1734 1069 1313 
Q 1069 891 1326 650 
Q 1584 409 2034 409 
Q 2484 409 2743 651 
Q 3003 894 3003 1313 
Q 3003 1734 2745 1975 
Q 2488 2216 2034 2216 
z
M 1403 2484 
Q 997 2584 770 2862 
Q 544 3141 544 3541 
Q 544 4100 942 4425 
Q 1341 4750 2034 4750 
Q 2731 4750 3128 4425 
Q 3525 4100 3525 3541 
Q 3525 3141 3298 2862 
Q 3072 2584 2669 2484 
Q 3125 2378 3379 2068 
Q 3634 1759 3634 1313 
Q 3634 634 3220 271 
Q 2806 -91 2034 -91 
Q 1263 -91 848 271 
Q 434 634 434 1313 
Q 434 1759 690 2068 
Q 947 2378 1403 2484 
z
M 1172 3481 
Q 1172 3119 1398 2916 
Q 1625 2713 2034 2713 
Q 2441 2713 2670 2916 
Q 2900 3119 2900 3481 
Q 2900 3844 2670 4047 
Q 2441 4250 2034 4250 
Q 1625 4250 1398 4047 
Q 1172 3844 1172 3481 
z
" transform="scale(0.015625)"/>
       </defs>
       <use xlink:href="#DejaVuSans-38"/>
      </g>
     </g>
    </g>
    <g id="text_6">
     <!-- ln(distance in km) -->
     <g transform="translate(191.012344 335.860562) scale(0.1 -0.1)">
      <defs>
       <path id="DejaVuSans-6c" d="M 603 4863 
L 1178 4863 
L 1178 0 
L 603 0 
L 603 4863 
z
" transform="scale(0.015625)"/>
       <path id="DejaVuSans-6e" d="M 3513 2113 
L 3513 0 
L 2938 0 
L 2938 2094 
Q 2938 2591 2744 2837 
Q 2550 3084 2163 3084 
Q 1697 3084 1428 2787 
Q 1159 2491 1159 1978 
L 1159 0 
L 581 0 
L 581 3500 
L 1159 3500 
L 1159 2956 
Q 1366 3272 1645 3428 
Q 1925 3584 2291 3584 
Q 2894 3584 3203 3211 
Q 3513 2838 3513 2113 
z
" transform="scale(0.015625)"/>
       <path id="DejaVuSans-28" d="M 1984 4856 
Q 1566 4138 1362 3434 
Q 1159 2731 1159 2009 
Q 1159 1288 1364 580 
Q 1569 -128 1984 -844 
L 1484 -844 
Q 1016 -109 783 600 
Q 550 1309 550 2009 
Q 550 2706 781 3412 
Q 1013 4119 1484 4856 
L 1984 4856 
z
" transform="scale(0.015625)"/>
       <path id="DejaVuSans-64" d="M 2906 2969 
L 2906 4863 
L 3481 4863 
L 3481 0 
L 2906 0 
L 2906 525 
Q 2725 213 2448 61 
Q 2172 -91 1784 -91 
Q 1150 -91 751 415 
Q 353 922 353 1747 
Q 353 2572 751 3078 
Q 1150 3584 1784 3584 
Q 2172 3584 2448 3432 
Q 2725 3281 2906 2969 
z
M 947 1747 
Q 947 1113 1208 752 
Q 1469 391 1925 391 
Q 2381 391 2643 752 
Q 2906 1113 2906 1747 
Q 2906 2381 2643 2742 
Q 2381 3103 1925 3103 
Q 1469 3103 1208 2742 
Q 947 2381 947 1747 
z
" transform="scale(0.015625)"/>
       <path id="DejaVuSans-69" d="M 603 3500 
L 1178 3500 
L 1178 0 
L 603 0 
L 603 3500 
z
M 603 4863 
L 1178 4863 
L 1178 4134 
L 603 4134 
L 603 4863 
z
" transform="scale(0.015625)"/>
       <path id="DejaVuSans-73" d="M 2834 3397 
L 2834 2853 
Q 2591 2978 2328 3040 
Q 2066 3103 1784 3103 
Q 1356 3103 1142 2972 
Q 928 2841 928 2578 
Q 928 2378 1081 2264 
Q 1234 2150 1697 2047 
L 1894 2003 
Q 2506 1872 2764 1633 
Q 3022 1394 3022 966 
Q 3022 478 2636 193 
Q 2250 -91 1575 -91 
Q 1294 -91 989 -36 
Q 684 19 347 128 
L 347 722 
Q 666 556 975 473 
Q 1284 391 1588 391 
Q 1994 391 2212 530 
Q 2431 669 2431 922 
Q 2431 1156 2273 1281 
Q 2116 1406 1581 1522 
L 1381 1569 
Q 847 1681 609 1914 
Q 372 2147 372 2553 
Q 372 3047 722 3315 
Q 1072 3584 1716 3584 
Q 2034 3584 2315 3537 
Q 2597 3491 2834 3397 
z
" transform="scale(0.015625)"/>
       <path id="DejaVuSans-74" d="M 1172 4494 
L 1172 3500 
L 2356 3500 
L 2356 3053 
L 1172 3053 
L 1172 1153 
Q 1172 725 1289 603 
Q 1406 481 1766 481 
L 2356 481 
L 2356 0 
L 1766 0 
Q 1100 0 847 248 
Q 594 497 594 1153 
L 594 3053 
L 172 3053 
L 172 3500 
L 594 3500 
L 594 4494 
L 1172 4494 
z
" transform="scale(0.015625)"/>
       <path id="DejaVuSans-61" d="M 2194 1759 
Q 1497 1759 1228 1600 
Q 959 1441 959 1056 
Q 959 750 1161 570 
Q 1363 391 1709 391 
Q 2188 391 2477 730 
Q 2766 1069 2766 1631 
L 2766 1759 
L 2194 1759 
z
M 3341 1997 
L 3341 0 
L 2766 0 
L 2766 531 
Q 2569 213 2275 61 
Q 1981 -91 1556 -91 
Q 1019 -91 701 211 
Q 384 513 384 1019 
Q 384 1609 779 1909 
Q 1175 2209 1959 2209 
L 2766 2209 
L 2766 2266 
Q 2766 2663 2505 2880 
Q 2244 3097 1772 3097 
Q 1472 3097 1187 3025 
Q 903 2953 641 2809 
L 641 3341 
Q 956 3463 1253 3523 
Q 1550 3584 1831 3584 
Q 2591 3584 2966 3190 
Q 3341 2797 3341 1997 
z
" transform="scale(0.015625)"/>
       <path id="DejaVuSans-63" d="M 3122 3366 
L 3122 2828 
Q 2878 2963 2633 3030 
Q 2388 3097 2138 3097 
Q 1578 3097 1268 2742 
Q 959 2388 959 1747 
Q 959 1106 1268 751 
Q 1578 397 2138 397 
Q 2388 397 2633 464 
Q 2878 531 3122 666 
L 3122 134 
Q 2881 22 2623 -34 
Q 2366 -91 2075 -91 
Q 1284 -91 818 406 
Q 353 903 353 1747 
Q 353 2603 823 3093 
Q 1294 3584 2113 3584 
Q 2378 3584 2631 3529 
Q 2884 3475 3122 3366 
z
" transform="scale(0.015625)"/>
       <path id="DejaVuSans-65" d="M 3597 1894 
L 3597 1613 
L 953 1613 
Q 991 1019 1311 708 
Q 1631 397 2203 397 
Q 2534 397 2845 478 
Q 3156 559 3463 722 
L 3463 178 
Q 3153 47 2828 -22 
Q 2503 -91 2169 -91 
Q 1331 -91 842 396 
Q 353 884 353 1716 
Q 353 2575 817 3079 
Q 1281 3584 2069 3584 
Q 2775 3584 3186 3129 
Q 3597 2675 3597 1894 
z
M 3022 2063 
Q 3016 2534 2758 2815 
Q 2500 3097 2075 3097 
Q 1594 3097 1305 2825 
Q 1016 2553 972 2059 
L 3022 2063 
z
" transform="scale(0.015625)"/>
       <path id="DejaVuSans-20" transform="scale(0.015625)"/>
       <path id="DejaVuSans-6b" d="M 581 4863 
L 1159 4863 
L 1159 1991 
L 2875 3500 
L 3609 3500 
L 1753 1863 
L 3688 0 
L 2938 0 
L 1159 1709 
L 1159 0 
L 581 0 
L 581 4863 
z
" transform="scale(0.015625)"/>
       <path id="DejaVuSans-6d" d="M 3328 2828 
Q 3544 3216 3844 3400 
Q 4144 3584 4550 3584 
Q 5097 3584 5394 3201 
Q 5691 2819 5691 2113 
L 5691 0 
L 5113 0 
L 5113 2094 
Q 5113 2597 4934 2840 
Q 4756 3084 4391 3084 
Q 3944 3084 3684 2787 
Q 3425 2491 3425 1978 
L 3425 0 
L 2847 0 
L 2847 2094 
Q 2847 2600 2669 2842 
Q 2491 3084 2119 3084 
Q 1678 3084 1418 2786 
Q 1159 2488 1159 1978 
L 1159 0 
L 581 0 
L 581 3500 
L 1159 3500 
L 1159 2956 
Q 1356 3278 1631 3431 
Q 1906 3584 2284 3584 
Q 2666 3584 2933 3390 
Q 3200 3197 3328 2828 
z
" transform="scale(0.015625)"/>
       <path id="DejaVuSans-29" d="M 513 4856 
L 1013 4856 
Q 1481 4119 1714 3412 
Q 1947 2706 1947 2009 
Q 1947 1309 1714 600 
Q 1481 -109 1013 -844 
L 513 -844 
Q 928 -128 1133 580 
Q 1338 1288 1338 2009 
Q 1338 2731 1133 3434 
Q 928 4138 513 4856 
z
" transform="scale(0.015625)"/>
      </defs>
      <use xlink:href="#DejaVuSans-6c"/>
      <use xlink:href="#DejaVuSans-6e" transform="translate(27.783203 0)"/>
      <use xlink:href="#DejaVuSans-28" transform="translate(91.162109 0)"/>
      <use xlink:href="#DejaVuSans-64" transform="translate(130.175781 0)"/>
      <use xlink:href="#DejaVuSans-69" transform="translate(193.652344 0)"/>
      <use xlink:href="#DejaVuSans-73" transform="translate(221.435547 0)"/>
      <use xlink:href="#DejaVuSans-74" transform="translate(273.535156 0)"/>
      <use xlink:href="#DejaVuSans-61" transform="translate(312.744141 0)"/>
      <use xlink:href="#DejaVuSans-6e" transform="translate(374.023438 0)"/>
      <use xlink:href="#DejaVuSans-63" transform="translate(437.402344 0)"/>
      <use xlink:href="#DejaVuSans-65" transform="translate(492.382812 0)"/>
      <use xlink:href="#DejaVuSans-20" transform="translate(553.90625 0)"/>
      <use xlink:href="#DejaVuSans-69" transform="translate(585.693359 0)"/>
      <use xlink:href="#DejaVuSans-6e" transform="translate(613.476562 0)"/>
      <use xlink:href="#DejaVuSans-20" transform="translate(676.855469 0)"/>
      <use xlink:href="#DejaVuSans-6b" transform="translate(708.642578 0)"/>
      <use xlink:href="#DejaVuSans-6d" transform="translate(766.552734 0)"/>
      <use xlink:href="#DejaVuSans-29" transform="translate(863.964844 0)"/>
     </g>
    </g>
   </g>
   <g id="matplotlib.axis_2">
    <g id="ytick_1">
     <g id="line2d_6">
      <defs>
       <path id="mca10ca3bbb" d="M 0 0 
L -3.5 0 
" style="stroke: #000000; stroke-width: 0.8"/>
      </defs>
      <g>
       <use xlink:href="#mca10ca3bbb" x="57.6" y="291.78841" style="stroke: #000000; stroke-width: 0.8"/>
      </g>
     </g>
     <g id="text_7">
      <!-- −0.05 -->
      <g transform="translate(19.954687 295.587629) scale(0.1 -0.1)">
       <defs>
        <path id="DejaVuSans-2212" d="M 678 2272 
L 4684 2272 
L 4684 1741 
L 678 1741 
L 678 2272 
z
" transform="scale(0.015625)"/>
        <path id="DejaVuSans-30" d="M 2034 4250 
Q 1547 4250 1301 3770 
Q 1056 3291 1056 2328 
Q 1056 1369 1301 889 
Q 1547 409 2034 409 
Q 2525 409 2770 889 
Q 3016 1369 3016 2328 
Q 3016 3291 2770 3770 
Q 2525 4250 2034 4250 
z
M 2034 4750 
Q 2819 4750 3233 4129 
Q 3647 3509 3647 2328 
Q 3647 1150 3233 529 
Q 2819 -91 2034 -91 
Q 1250 -91 836 529 
Q 422 1150 422 2328 
Q 422 3509 836 4129 
Q 1250 4750 2034 4750 
z
" transform="scale(0.015625)"/>
        <path id="DejaVuSans-2e" d="M 684 794 
L 1344 794 
L 1344 0 
L 684 0 
L 684 794 
z
" transform="scale(0.015625)"/>
       </defs>
       <use xlink:href="#DejaVuSans-2212"/>
       <use xlink:href="#DejaVuSans-30" transform="translate(83.789062 0)"/>
       <use xlink:href="#DejaVuSans-2e" transform="translate(147.412109 0)"/>
       <use xlink:href="#DejaVuSans-30" transform="translate(179.199219 0)"/>
       <use xlink:href="#DejaVuSans-35" transform="translate(242.822266 0)"/>
      </g>
     </g>
    </g>
    <g id="ytick_2">
     <g id="line2d_7">
      <g>
       <use xlink:href="#mca10ca3bbb" x="57.6" y="255.497137" style="stroke: #000000; stroke-width: 0.8"/>
      </g>
     </g>
     <g id="text_8">
      <!-- 0.00 -->
      <g transform="translate(28.334375 259.296355) scale(0.1 -0.1)">
       <use xlink:href="#DejaVuSans-30"/>
       <use xlink:href="#DejaVuSans-2e" transform="translate(63.623047 0)"/>
       <use xlink:href="#DejaVuSans-30" transform="translate(95.410156 0)"/>
       <use xlink:href="#DejaVuSans-30" transform="translate(159.033203 0)"/>
      </g>
     </g>
    </g>
    <g id="ytick_3">
     <g id="line2d_8">
      <g>
       <use xlink:href="#mca10ca3bbb" x="57.6" y="219.205863" style="stroke: #000000; stroke-width: 0.8"/>
      </g>
     </g>
     <g id="text_9">
      <!-- 0.05 -->
      <g transform="translate(28.334375 223.005082) scale(0.1 -0.1)">
       <use xlink:href="#DejaVuSans-30"/>
       <use xlink:href="#DejaVuSans-2e" transform="translate(63.623047 0)"/>
       <use xlink:href="#DejaVuSans-30" transform="translate(95.410156 0)"/>
       <use xlink:href="#DejaVuSans-35" transform="translate(159.033203 0)"/>
      </g>
     </g>
    </g>
    <g id="ytick_4">
     <g id="line2d_9">
      <g>
       <use xlink:href="#mca10ca3bbb" x="57.6" y="182.91459" style="stroke: #000000; stroke-width: 0.8"/>
      </g>
     </g>
     <g id="text_10">
      <!-- 0.10 -->
      <g transform="translate(28.334375 186.713809) scale(0.1 -0.1)">
       <defs>
        <path id="DejaVuSans-31" d="M 794 531 
L 1825 531 
L 1825 4091 
L 703 3866 
L 703 4441 
L 1819 4666 
L 2450 4666 
L 2450 531 
L 3481 531 
L 3481 0 
L 794 0 
L 794 531 
z
" transform="scale(0.015625)"/>
       </defs>
       <use xlink:href="#DejaVuSans-30"/>
       <use xlink:href="#DejaVuSans-2e" transform="translate(63.623047 0)"/>
       <use xlink:href="#DejaVuSans-31" transform="translate(95.410156 0)"/>
       <use xlink:href="#DejaVuSans-30" transform="translate(159.033203 0)"/>
      </g>
     </g>
    </g>
    <g id="ytick_5">
     <g id="line2d_10">
      <g>
       <use xlink:href="#mca10ca3bbb" x="57.6" y="146.623317" style="stroke: #000000; stroke-width: 0.8"/>
      </g>
     </g>
     <g id="text_11">
      <!-- 0.15 -->
      <g transform="translate(28.334375 150.422535) scale(0.1 -0.1)">
       <use xlink:href="#DejaVuSans-30"/>
       <use xlink:href="#DejaVuSans-2e" transform="translate(63.623047 0)"/>
       <use xlink:href="#DejaVuSans-31" transform="translate(95.410156 0)"/>
       <use xlink:href="#DejaVuSans-35" transform="translate(159.033203 0)"/>
      </g>
     </g>
    </g>
    <g id="ytick_6">
     <g id="line2d_11">
      <g>
       <use xlink:href="#mca10ca3bbb" x="57.6" y="110.332043" style="stroke: #000000; stroke-width: 0.8"/>
      </g>
     </g>
     <g id="text_12">
      <!-- 0.20 -->
      <g transform="translate(28.334375 114.131262) scale(0.1 -0.1)">
       <defs>
        <path id="DejaVuSans-32" d="M 1228 531 
L 3431 531 
L 3431 0 
L 469 0 
L 469 531 
Q 828 903 1448 1529 
Q 2069 2156 2228 2338 
Q 2531 2678 2651 2914 
Q 2772 3150 2772 3378 
Q 2772 3750 2511 3984 
Q 2250 4219 1831 4219 
Q 1534 4219 1204 4116 
Q 875 4013 500 3803 
L 500 4441 
Q 881 4594 1212 4672 
Q 1544 4750 1819 4750 
Q 2544 4750 2975 4387 
Q 3406 4025 3406 3419 
Q 3406 3131 3298 2873 
Q 3191 2616 2906 2266 
Q 2828 2175 2409 1742 
Q 1991 1309 1228 531 
z
" transform="scale(0.015625)"/>
       </defs>
       <use xlink:href="#DejaVuSans-30"/>
       <use xlink:href="#DejaVuSans-2e" transform="translate(63.623047 0)"/>
       <use xlink:href="#DejaVuSans-32" transform="translate(95.410156 0)"/>
       <use xlink:href="#DejaVuSans-30" transform="translate(159.033203 0)"/>
      </g>
     </g>
    </g>
    <g id="ytick_7">
     <g id="line2d_12">
      <g>
       <use xlink:href="#mca10ca3bbb" x="57.6" y="74.04077" style="stroke: #000000; stroke-width: 0.8"/>
      </g>
     </g>
     <g id="text_13">
      <!-- 0.25 -->
      <g transform="translate(28.334375 77.839989) scale(0.1 -0.1)">
       <use xlink:href="#DejaVuSans-30"/>
       <use xlink:href="#DejaVuSans-2e" transform="translate(63.623047 0)"/>
       <use xlink:href="#DejaVuSans-32" transform="translate(95.410156 0)"/>
       <use xlink:href="#DejaVuSans-35" transform="translate(159.033203 0)"/>
      </g>
     </g>
    </g>
    <g id="text_14">
     <!-- Fst/(1-Fst) -->
     <g transform="translate(13.875 199.980344) rotate(-90) scale(0.1 -0.1)">
      <defs>
       <path id="DejaVuSans-46" d="M 628 4666 
L 3309 4666 
L 3309 4134 
L 1259 4134 
L 1259 2759 
L 3109 2759 
L 3109 2228 
L 1259 2228 
L 1259 0 
L 628 0 
L 628 4666 
z
" transform="scale(0.015625)"/>
       <path id="DejaVuSans-2f" d="M 1625 4666 
L 2156 4666 
L 531 -594 
L 0 -594 
L 1625 4666 
z
" transform="scale(0.015625)"/>
       <path id="DejaVuSans-2d" d="M 313 2009 
L 1997 2009 
L 1997 1497 
L 313 1497 
L 313 2009 
z
" transform="scale(0.015625)"/>
      </defs>
      <use xlink:href="#DejaVuSans-46"/>
      <use xlink:href="#DejaVuSans-73" transform="translate(57.519531 0)"/>
      <use xlink:href="#DejaVuSans-74" transform="translate(109.619141 0)"/>
      <use xlink:href="#DejaVuSans-2f" transform="translate(148.828125 0)"/>
      <use xlink:href="#DejaVuSans-28" transform="translate(182.519531 0)"/>
      <use xlink:href="#DejaVuSans-31" transform="translate(221.533203 0)"/>
      <use xlink:href="#DejaVuSans-2d" transform="translate(285.15625 0)"/>
      <use xlink:href="#DejaVuSans-46" transform="translate(321.240234 0)"/>
      <use xlink:href="#DejaVuSans-73" transform="translate(378.759766 0)"/>
      <use xlink:href="#DejaVuSans-74" transform="translate(430.859375 0)"/>
      <use xlink:href="#DejaVuSans-29" transform="translate(470.068359 0)"/>
     </g>
    </g>
   </g>
   <g id="line2d_13">
    <path d="M 73.832727 295.488 
L 391.812829 163.037452 
" clip-path="url(#pe450b0a842)" style="fill: none; stroke-dasharray: 5.55,2.4; stroke-dashoffset: 0; stroke: #000000; stroke-width: 1.5"/>
   </g>
   <g id="line2d_14">
    <path d="M 211.415593 141.605605 
L 394.964637 116.536506 
" clip-path="url(#pe450b0a842)" style="fill: none; stroke-dasharray: 5.55,2.4; stroke-dashoffset: 0; stroke: #2ca02c; stroke-width: 1.5"/>
   </g>
   <g id="line2d_15">
    <path d="M 154.668147 187.770981 
L 388.152741 169.602016 
" clip-path="url(#pe450b0a842)" style="fill: none; stroke-dasharray: 5.55,2.4; stroke-dashoffset: 0; stroke: #d1985a; stroke-width: 1.5"/>
   </g>
   <g id="line2d_16">
    <path d="M 248.252328 209.003862 
L 397.84922 190.52223 
" clip-path="url(#pe450b0a842)" style="fill: none; stroke-dasharray: 5.55,2.4; stroke-dashoffset: 0; stroke: #02715b; stroke-width: 1.5"/>
   </g>
   <g id="line2d_17">
    <path d="M 249.603485 222.871864 
L 398.487273 204.249131 
" clip-path="url(#pe450b0a842)" style="fill: none; stroke-dasharray: 5.55,2.4; stroke-dashoffset: 0; stroke: #98df8a; stroke-width: 1.5"/>
   </g>
   <g id="line2d_18">
    <path d="M 279.78328 232.872473 
L 391.812829 122.55646 
" clip-path="url(#pe450b0a842)" style="fill: none; stroke-dasharray: 5.55,2.4; stroke-dashoffset: 0; stroke: #17becf; stroke-width: 1.5"/>
   </g>
   <g id="patch_3">
    <path d="M 57.6 307.584 
L 57.6 41.472 
" style="fill: none; stroke: #000000; stroke-width: 0.8; stroke-linejoin: miter; stroke-linecap: square"/>
   </g>
   <g id="patch_4">
    <path d="M 414.72 307.584 
L 414.72 41.472 
" style="fill: none; stroke: #000000; stroke-width: 0.8; stroke-linejoin: miter; stroke-linecap: square"/>
   </g>
   <g id="patch_5">
    <path d="M 57.6 307.584 
L 414.72 307.584 
" style="fill: none; stroke: #000000; stroke-width: 0.8; stroke-linejoin: miter; stroke-linecap: square"/>
   </g>
   <g id="patch_6">
    <path d="M 57.6 41.472 
L 414.72 41.472 
" style="fill: none; stroke: #000000; stroke-width: 0.8; stroke-linejoin: miter; stroke-linecap: square"/>
   </g>
   <g id="text_15">
    <!-- R=0.459 -->
    <g transform="translate(73.815908 59.52426) scale(0.1 -0.1)">
     <defs>
      <path id="DejaVuSans-52" d="M 2841 2188 
Q 3044 2119 3236 1894 
Q 3428 1669 3622 1275 
L 4263 0 
L 3584 0 
L 2988 1197 
Q 2756 1666 2539 1819 
Q 2322 1972 1947 1972 
L 1259 1972 
L 1259 0 
L 628 0 
L 628 4666 
L 2053 4666 
Q 2853 4666 3247 4331 
Q 3641 3997 3641 3322 
Q 3641 2881 3436 2590 
Q 3231 2300 2841 2188 
z
M 1259 4147 
L 1259 2491 
L 2053 2491 
Q 2509 2491 2742 2702 
Q 2975 2913 2975 3322 
Q 2975 3731 2742 3939 
Q 2509 4147 2053 4147 
L 1259 4147 
z
" transform="scale(0.015625)"/>
      <path id="DejaVuSans-3d" d="M 678 2906 
L 4684 2906 
L 4684 2381 
L 678 2381 
L 678 2906 
z
M 678 1631 
L 4684 1631 
L 4684 1100 
L 678 1100 
L 678 1631 
z
" transform="scale(0.015625)"/>
      <path id="DejaVuSans-39" d="M 703 97 
L 703 672 
Q 941 559 1184 500 
Q 1428 441 1663 441 
Q 2288 441 2617 861 
Q 2947 1281 2994 2138 
Q 2813 1869 2534 1725 
Q 2256 1581 1919 1581 
Q 1219 1581 811 2004 
Q 403 2428 403 3163 
Q 403 3881 828 4315 
Q 1253 4750 1959 4750 
Q 2769 4750 3195 4129 
Q 3622 3509 3622 2328 
Q 3622 1225 3098 567 
Q 2575 -91 1691 -91 
Q 1453 -91 1209 -44 
Q 966 3 703 97 
z
M 1959 2075 
Q 2384 2075 2632 2365 
Q 2881 2656 2881 3163 
Q 2881 3666 2632 3958 
Q 2384 4250 1959 4250 
Q 1534 4250 1286 3958 
Q 1038 3666 1038 3163 
Q 1038 2656 1286 2365 
Q 1534 2075 1959 2075 
z
" transform="scale(0.015625)"/>
     </defs>
     <use xlink:href="#DejaVuSans-52"/>
     <use xlink:href="#DejaVuSans-3d" transform="translate(69.482422 0)"/>
     <use xlink:href="#DejaVuSans-30" transform="translate(153.271484 0)"/>
     <use xlink:href="#DejaVuSans-2e" transform="translate(216.894531 0)"/>
     <use xlink:href="#DejaVuSans-34" transform="translate(248.681641 0)"/>
     <use xlink:href="#DejaVuSans-35" transform="translate(312.304688 0)"/>
     <use xlink:href="#DejaVuSans-39" transform="translate(375.927734 0)"/>
    </g>
   </g>
   <g id="text_16">
    <!-- R=0.038 -->
    <g style="fill: #2ca02c" transform="translate(73.815908 74.04077) scale(0.1 -0.1)">
     <defs>
      <path id="DejaVuSans-33" d="M 2597 2516 
Q 3050 2419 3304 2112 
Q 3559 1806 3559 1356 
Q 3559 666 3084 287 
Q 2609 -91 1734 -91 
Q 1441 -91 1130 -33 
Q 819 25 488 141 
L 488 750 
Q 750 597 1062 519 
Q 1375 441 1716 441 
Q 2309 441 2620 675 
Q 2931 909 2931 1356 
Q 2931 1769 2642 2001 
Q 2353 2234 1838 2234 
L 1294 2234 
L 1294 2753 
L 1863 2753 
Q 2328 2753 2575 2939 
Q 2822 3125 2822 3475 
Q 2822 3834 2567 4026 
Q 2313 4219 1838 4219 
Q 1578 4219 1281 4162 
Q 984 4106 628 3988 
L 628 4550 
Q 988 4650 1302 4700 
Q 1616 4750 1894 4750 
Q 2613 4750 3031 4423 
Q 3450 4097 3450 3541 
Q 3450 3153 3228 2886 
Q 3006 2619 2597 2516 
z
" transform="scale(0.015625)"/>
     </defs>
     <use xlink:href="#DejaVuSans-52"/>
     <use xlink:href="#DejaVuSans-3d" transform="translate(69.482422 0)"/>
     <use xlink:href="#DejaVuSans-30" transform="translate(153.271484 0)"/>
     <use xlink:href="#DejaVuSans-2e" transform="translate(216.894531 0)"/>
     <use xlink:href="#DejaVuSans-30" transform="translate(248.681641 0)"/>
     <use xlink:href="#DejaVuSans-33" transform="translate(312.304688 0)"/>
     <use xlink:href="#DejaVuSans-38" transform="translate(375.927734 0)"/>
    </g>
   </g>
   <g id="text_17">
    <!-- R=0.032 -->
    <g style="fill: #d1985a" transform="translate(73.815908 88.557279) scale(0.1 -0.1)">
     <use xlink:href="#DejaVuSans-52"/>
     <use xlink:href="#DejaVuSans-3d" transform="translate(69.482422 0)"/>
     <use xlink:href="#DejaVuSans-30" transform="translate(153.271484 0)"/>
     <use xlink:href="#DejaVuSans-2e" transform="translate(216.894531 0)"/>
     <use xlink:href="#DejaVuSans-30" transform="translate(248.681641 0)"/>
     <use xlink:href="#DejaVuSans-33" transform="translate(312.304688 0)"/>
     <use xlink:href="#DejaVuSans-32" transform="translate(375.927734 0)"/>
    </g>
   </g>
   <g id="text_18">
    <!-- R=0.048 -->
    <g style="fill: #02715b" transform="translate(73.815908 103.073788) scale(0.1 -0.1)">
     <use xlink:href="#DejaVuSans-52"/>
     <use xlink:href="#DejaVuSans-3d" transform="translate(69.482422 0)"/>
     <use xlink:href="#DejaVuSans-30" transform="translate(153.271484 0)"/>
     <use xlink:href="#DejaVuSans-2e" transform="translate(216.894531 0)"/>
     <use xlink:href="#DejaVuSans-30" transform="translate(248.681641 0)"/>
     <use xlink:href="#DejaVuSans-34" transform="translate(312.304688 0)"/>
     <use xlink:href="#DejaVuSans-38" transform="translate(375.927734 0)"/>
    </g>
   </g>
   <g id="text_19">
    <!-- R=0.043 -->
    <g style="fill: #98df8a" transform="translate(73.815908 117.590298) scale(0.1 -0.1)">
     <use xlink:href="#DejaVuSans-52"/>
     <use xlink:href="#DejaVuSans-3d" transform="translate(69.482422 0)"/>
     <use xlink:href="#DejaVuSans-30" transform="translate(153.271484 0)"/>
     <use xlink:href="#DejaVuSans-2e" transform="translate(216.894531 0)"/>
     <use xlink:href="#DejaVuSans-30" transform="translate(248.681641 0)"/>
     <use xlink:href="#DejaVuSans-34" transform="translate(312.304688 0)"/>
     <use xlink:href="#DejaVuSans-33" transform="translate(375.927734 0)"/>
    </g>
   </g>
   <g id="text_20">
    <!-- R=0.854 -->
    <g style="fill: #17becf" transform="translate(73.815908 132.106807) scale(0.1 -0.1)">
     <use xlink:href="#DejaVuSans-52"/>
     <use xlink:href="#DejaVuSans-3d" transform="translate(69.482422 0)"/>
     <use xlink:href="#DejaVuSans-30" transform="translate(153.271484 0)"/>
     <use xlink:href="#DejaVuSans-2e" transform="translate(216.894531 0)"/>
     <use xlink:href="#DejaVuSans-38" transform="translate(248.681641 0)"/>
     <use xlink:href="#DejaVuSans-35" transform="translate(312.304688 0)"/>
     <use xlink:href="#DejaVuSans-34" transform="translate(375.927734 0)"/>
    </g>
   </g>
   <g id="text_21">
    <!-- Isolation by Distance -->
    <g transform="translate(173.3475 35.472) scale(0.12 -0.12)">
     <defs>
      <path id="DejaVuSans-49" d="M 628 4666 
L 1259 4666 
L 1259 0 
L 628 0 
L 628 4666 
z
" transform="scale(0.015625)"/>
      <path id="DejaVuSans-6f" d="M 1959 3097 
Q 1497 3097 1228 2736 
Q 959 2375 959 1747 
Q 959 1119 1226 758 
Q 1494 397 1959 397 
Q 2419 397 2687 759 
Q 2956 1122 2956 1747 
Q 2956 2369 2687 2733 
Q 2419 3097 1959 3097 
z
M 1959 3584 
Q 2709 3584 3137 3096 
Q 3566 2609 3566 1747 
Q 3566 888 3137 398 
Q 2709 -91 1959 -91 
Q 1206 -91 779 398 
Q 353 888 353 1747 
Q 353 2609 779 3096 
Q 1206 3584 1959 3584 
z
" transform="scale(0.015625)"/>
      <path id="DejaVuSans-62" d="M 3116 1747 
Q 3116 2381 2855 2742 
Q 2594 3103 2138 3103 
Q 1681 3103 1420 2742 
Q 1159 2381 1159 1747 
Q 1159 1113 1420 752 
Q 1681 391 2138 391 
Q 2594 391 2855 752 
Q 3116 1113 3116 1747 
z
M 1159 2969 
Q 1341 3281 1617 3432 
Q 1894 3584 2278 3584 
Q 2916 3584 3314 3078 
Q 3713 2572 3713 1747 
Q 3713 922 3314 415 
Q 2916 -91 2278 -91 
Q 1894 -91 1617 61 
Q 1341 213 1159 525 
L 1159 0 
L 581 0 
L 581 4863 
L 1159 4863 
L 1159 2969 
z
" transform="scale(0.015625)"/>
      <path id="DejaVuSans-79" d="M 2059 -325 
Q 1816 -950 1584 -1140 
Q 1353 -1331 966 -1331 
L 506 -1331 
L 506 -850 
L 844 -850 
Q 1081 -850 1212 -737 
Q 1344 -625 1503 -206 
L 1606 56 
L 191 3500 
L 800 3500 
L 1894 763 
L 2988 3500 
L 3597 3500 
L 2059 -325 
z
" transform="scale(0.015625)"/>
      <path id="DejaVuSans-44" d="M 1259 4147 
L 1259 519 
L 2022 519 
Q 2988 519 3436 956 
Q 3884 1394 3884 2338 
Q 3884 3275 3436 3711 
Q 2988 4147 2022 4147 
L 1259 4147 
z
M 628 4666 
L 1925 4666 
Q 3281 4666 3915 4102 
Q 4550 3538 4550 2338 
Q 4550 1131 3912 565 
Q 3275 0 1925 0 
L 628 0 
L 628 4666 
z
" transform="scale(0.015625)"/>
     </defs>
     <use xlink:href="#DejaVuSans-49"/>
     <use xlink:href="#DejaVuSans-73" transform="translate(29.492188 0)"/>
     <use xlink:href="#DejaVuSans-6f" transform="translate(81.591797 0)"/>
     <use xlink:href="#DejaVuSans-6c" transform="translate(142.773438 0)"/>
     <use xlink:href="#DejaVuSans-61" transform="translate(170.556641 0)"/>
     <use xlink:href="#DejaVuSans-74" transform="translate(231.835938 0)"/>
     <use xlink:href="#DejaVuSans-69" transform="translate(271.044922 0)"/>
     <use xlink:href="#DejaVuSans-6f" transform="translate(298.828125 0)"/>
     <use xlink:href="#DejaVuSans-6e" transform="translate(360.009766 0)"/>
     <use xlink:href="#DejaVuSans-20" transform="translate(423.388672 0)"/>
     <use xlink:href="#DejaVuSans-62" transform="translate(455.175781 0)"/>
     <use xlink:href="#DejaVuSans-79" transform="translate(518.652344 0)"/>
     <use xlink:href="#DejaVuSans-20" transform="translate(577.832031 0)"/>
     <use xlink:href="#DejaVuSans-44" transform="translate(609.619141 0)"/>
     <use xlink:href="#DejaVuSans-69" transform="translate(686.621094 0)"/>
     <use xlink:href="#DejaVuSans-73" transform="translate(714.404297 0)"/>
     <use xlink:href="#DejaVuSans-74" transform="translate(766.503906 0)"/>
     <use xlink:href="#DejaVuSans-61" transform="translate(805.712891 0)"/>
     <use xlink:href="#DejaVuSans-6e" transform="translate(866.992188 0)"/>
     <use xlink:href="#DejaVuSans-63" transform="translate(930.371094 0)"/>
     <use xlink:href="#DejaVuSans-65" transform="translate(985.351562 0)"/>
    </g>
   </g>
  </g>
 </g>
 <defs>
  <clipPath id="pe450b0a842">
   <rect x="57.6" y="41.472" width="357.12" height="266.112"/>
  </clipPath>
 </defs>
</svg>
