<?xml version="1.0" encoding="utf-8" standalone="no"?>
<!DOCTYPE svg PUBLIC "-//W3C//DTD SVG 1.1//EN"
  "http://www.w3.org/Graphics/SVG/1.1/DTD/svg11.dtd">
<svg xmlns:xlink="http://www.w3.org/1999/xlink" width="460.8pt" height="345.6pt" viewBox="0 0 460.8 345.6" xmlns="http://www.w3.org/2000/svg" version="1.1">
 <metadata>
  <rdf:RDF xmlns:dc="http://purl.org/dc/elements/1.1/" xmlns:cc="http://creativecommons.org/ns#" xmlns:rdf="http://www.w3.org/1999/02/22-rdf-syntax-ns#">
   <cc:Work>
    <dc:type rdf:resource="http://purl.org/dc/dcmitype/StillImage"/>
    <dc:date>2025-03-04T08:23:35.197618</dc:date>
    <dc:format>image/svg+xml</dc:format>
    <dc:creator>
     <cc:Agent>
      <dc:title>Matplotlib v3.10.0, https://matplotlib.org/</dc:title>
     </cc:Agent>
    </dc:creator>
   </cc:Work>
  </rdf:RDF>
 </metadata>
 <defs>
  <style type="text/css">*{stroke-linejoin: round; stroke-linecap: butt}</style>
 </defs>
 <g id="figure_1">
  <g id="patch_1">
   <path d="M 0 345.6 
L 460.8 345.6 
L 460.8 0 
L 0 0 
z
" style="fill: #ffffff"/>
  </g>
  <g id="axes_1">
   <g id="patch_2">
    <path d="M 57.6 307.584 
L 414.72 307.584 
L 414.72 41.472 
L 57.6 41.472 
z
" style="fill: #ffffff"/>
   </g>
   <g id="PathCollection_1">
    <defs>
     <path id="m1f5d7d83b8" d="M 0 3 
C 0.795609 3 1.55874 2.683901 2.12132 2.12132 
C 2.683901 1.55874 3 0.795609 3 0 
C 3 -0.795609 2.683901 -1.55874 2.12132 -2.12132 
C 1.55874 -2.683901 0.795609 -3 0 -3 
C -0.795609 -3 -1.55874 -2.683901 -2.12132 -2.12132 
C -2.683901 -1.55874 -3 -0.795609 -3 0 
C -3 0.795609 -2.683901 1.55874 -2.12132 2.12132 
C -1.55874 2.683901 -0.795609 3 0 3 
z
" style="stroke: #000000"/>
    </defs>
    <g clip-path="url(#p7b708b3d36)">
     <use xlink:href="#m1f5d7d83b8" x="243.847251" y="231.779203" style="fill: #ffffff; stroke: #000000"/>
     <use xlink:href="#m1f5d7d83b8" x="307.677634" y="194.877623" style="fill: #ffffff; stroke: #000000"/>
     <use xlink:href="#m1f5d7d83b8" x="339.304788" y="187.43872" style="fill: #ffffff; stroke: #000000"/>
     <use xlink:href="#m1f5d7d83b8" x="370.720276" y="186.112248" style="fill: #ffffff; stroke: #000000"/>
     <use xlink:href="#m1f5d7d83b8" x="381.087469" y="166.532353" style="fill: #ffffff; stroke: #000000"/>
     <use xlink:href="#m1f5d7d83b8" x="381.924178" y="157.45884" style="fill: #ffffff; stroke: #000000"/>
     <use xlink:href="#m1f5d7d83b8" x="382.842403" y="175.215468" style="fill: #ffffff; stroke: #000000"/>
     <use xlink:href="#m1f5d7d83b8" x="326.30524" y="132.540554" style="fill: #ffffff; stroke: #000000"/>
     <use xlink:href="#m1f5d7d83b8" x="337.762436" y="123.850791" style="fill: #ffffff; stroke: #000000"/>
     <use xlink:href="#m1f5d7d83b8" x="390.045492" y="94.555774" style="fill: #ffffff; stroke: #000000"/>
     <use xlink:href="#m1f5d7d83b8" x="397.617867" y="94.978279" style="fill: #ffffff; stroke: #000000"/>
     <use xlink:href="#m1f5d7d83b8" x="386.568943" y="101.727941" style="fill: #ffffff; stroke: #000000"/>
     <use xlink:href="#m1f5d7d83b8" x="392.561859" y="94.543518" style="fill: #ffffff; stroke: #000000"/>
     <use xlink:href="#m1f5d7d83b8" x="398.487273" y="53.568" style="fill: #ffffff; stroke: #000000"/>
     <use xlink:href="#m1f5d7d83b8" x="270.306027" y="204.398757" style="fill: #ffffff; stroke: #000000"/>
     <use xlink:href="#m1f5d7d83b8" x="317.958724" y="197.780946" style="fill: #ffffff; stroke: #000000"/>
     <use xlink:href="#m1f5d7d83b8" x="357.587973" y="197.139783" style="fill: #ffffff; stroke: #000000"/>
     <use xlink:href="#m1f5d7d83b8" x="370.060798" y="179.372975" style="fill: #ffffff; stroke: #000000"/>
     <use xlink:href="#m1f5d7d83b8" x="370.994504" y="170.748923" style="fill: #ffffff; stroke: #000000"/>
     <use xlink:href="#m1f5d7d83b8" x="372.236296" y="187.035941" style="fill: #ffffff; stroke: #000000"/>
     <use xlink:href="#m1f5d7d83b8" x="307.38919" y="141.342503" style="fill: #ffffff; stroke: #000000"/>
     <use xlink:href="#m1f5d7d83b8" x="323.159115" y="133.944606" style="fill: #ffffff; stroke: #000000"/>
     <use xlink:href="#m1f5d7d83b8" x="381.525138" y="108.145557" style="fill: #ffffff; stroke: #000000"/>
     <use xlink:href="#m1f5d7d83b8" x="390.127516" y="108.030732" style="fill: #ffffff; stroke: #000000"/>
     <use xlink:href="#m1f5d7d83b8" x="379.100221" y="114.965895" style="fill: #ffffff; stroke: #000000"/>
     <use xlink:href="#m1f5d7d83b8" x="385.730793" y="108.387606" style="fill: #ffffff; stroke: #000000"/>
     <use xlink:href="#m1f5d7d83b8" x="393.802431" y="67.894507" style="fill: #ffffff; stroke: #000000"/>
     <use xlink:href="#m1f5d7d83b8" x="265.500608" y="216.441111" style="fill: #ffffff; stroke: #000000"/>
     <use xlink:href="#m1f5d7d83b8" x="331.894454" y="212.559452" style="fill: #ffffff; stroke: #000000"/>
     <use xlink:href="#m1f5d7d83b8" x="349.177154" y="205.495853" style="fill: #ffffff; stroke: #000000"/>
     <use xlink:href="#m1f5d7d83b8" x="350.396969" y="195.253781" style="fill: #ffffff; stroke: #000000"/>
     <use xlink:href="#m1f5d7d83b8" x="352.156857" y="208.576762" style="fill: #ffffff; stroke: #000000"/>
     <use xlink:href="#m1f5d7d83b8" x="272.025478" y="138.859483" style="fill: #ffffff; stroke: #000000"/>
     <use xlink:href="#m1f5d7d83b8" x="295.896365" y="141.902866" style="fill: #ffffff; stroke: #000000"/>
     <use xlink:href="#m1f5d7d83b8" x="365.261043" y="137.783645" style="fill: #ffffff; stroke: #000000"/>
     <use xlink:href="#m1f5d7d83b8" x="375.98718" y="135.178086" style="fill: #ffffff; stroke: #000000"/>
     <use xlink:href="#m1f5d7d83b8" x="364.493947" y="142.226726" style="fill: #ffffff; stroke: #000000"/>
     <use xlink:href="#m1f5d7d83b8" x="372.420963" y="137.933536" style="fill: #ffffff; stroke: #000000"/>
     <use xlink:href="#m1f5d7d83b8" x="384.251959" y="99.521664" style="fill: #ffffff; stroke: #000000"/>
     <use xlink:href="#m1f5d7d83b8" x="295.288385" y="229.151862" style="fill: #ffffff; stroke: #000000"/>
     <use xlink:href="#m1f5d7d83b8" x="321.881726" y="225.424247" style="fill: #ffffff; stroke: #000000"/>
     <use xlink:href="#m1f5d7d83b8" x="323.667701" y="212.213023" style="fill: #ffffff; stroke: #000000"/>
     <use xlink:href="#m1f5d7d83b8" x="326.201814" y="227.576621" style="fill: #ffffff; stroke: #000000"/>
     <use xlink:href="#m1f5d7d83b8" x="271.313335" y="136.732748" style="fill: #ffffff; stroke: #000000"/>
     <use xlink:href="#m1f5d7d83b8" x="283.246789" y="143.518515" style="fill: #ffffff; stroke: #000000"/>
     <use xlink:href="#m1f5d7d83b8" x="345.54214" y="147.726332" style="fill: #ffffff; stroke: #000000"/>
     <use xlink:href="#m1f5d7d83b8" x="359.370381" y="145.133084" style="fill: #ffffff; stroke: #000000"/>
     <use xlink:href="#m1f5d7d83b8" x="347.886261" y="151.019721" style="fill: #ffffff; stroke: #000000"/>
     <use xlink:href="#m1f5d7d83b8" x="357.349174" y="147.293499" style="fill: #ffffff; stroke: #000000"/>
     <use xlink:href="#m1f5d7d83b8" x="374.175279" y="111.141203" style="fill: #ffffff; stroke: #000000"/>
     <use xlink:href="#m1f5d7d83b8" x="239.788964" y="235.671579" style="fill: #ffffff; stroke: #000000"/>
     <use xlink:href="#m1f5d7d83b8" x="244.166036" y="228.397929" style="fill: #ffffff; stroke: #000000"/>
     <use xlink:href="#m1f5d7d83b8" x="255.065016" y="236.618177" style="fill: #ffffff; stroke: #000000"/>
     <use xlink:href="#m1f5d7d83b8" x="325.675406" y="137.968378" style="fill: #ffffff; stroke: #000000"/>
     <use xlink:href="#m1f5d7d83b8" x="322.638468" y="139.398143" style="fill: #ffffff; stroke: #000000"/>
     <use xlink:href="#m1f5d7d83b8" x="309.668296" y="148.836769" style="fill: #ffffff; stroke: #000000"/>
     <use xlink:href="#m1f5d7d83b8" x="329.976122" y="144.968917" style="fill: #ffffff; stroke: #000000"/>
     <use xlink:href="#m1f5d7d83b8" x="328.629353" y="153.740695" style="fill: #ffffff; stroke: #000000"/>
     <use xlink:href="#m1f5d7d83b8" x="337.856677" y="150.325738" style="fill: #ffffff; stroke: #000000"/>
     <use xlink:href="#m1f5d7d83b8" x="364.293879" y="108.895467" style="fill: #ffffff; stroke: #000000"/>
     <use xlink:href="#m1f5d7d83b8" x="73.832727" y="236.902611" style="fill: #ffffff; stroke: #000000"/>
     <use xlink:href="#m1f5d7d83b8" x="144.531104" y="240.954384" style="fill: #ffffff; stroke: #000000"/>
     <use xlink:href="#m1f5d7d83b8" x="341.158904" y="125.715238" style="fill: #ffffff; stroke: #000000"/>
     <use xlink:href="#m1f5d7d83b8" x="336.486663" y="130.220761" style="fill: #ffffff; stroke: #000000"/>
     <use xlink:href="#m1f5d7d83b8" x="283.878145" y="149.331254" style="fill: #ffffff; stroke: #000000"/>
     <use xlink:href="#m1f5d7d83b8" x="308.995154" y="144.239167" style="fill: #ffffff; stroke: #000000"/>
     <use xlink:href="#m1f5d7d83b8" x="318.222672" y="153.515775" style="fill: #ffffff; stroke: #000000"/>
     <use xlink:href="#m1f5d7d83b8" x="325.890115" y="150.963353" style="fill: #ffffff; stroke: #000000"/>
     <use xlink:href="#m1f5d7d83b8" x="357.661379" y="108.846351" style="fill: #ffffff; stroke: #000000"/>
     <use xlink:href="#m1f5d7d83b8" x="147.638442" y="235.266947" style="fill: #ffffff; stroke: #000000"/>
     <use xlink:href="#m1f5d7d83b8" x="342.828468" y="121.289501" style="fill: #ffffff; stroke: #000000"/>
     <use xlink:href="#m1f5d7d83b8" x="338.340806" y="120.563789" style="fill: #ffffff; stroke: #000000"/>
     <use xlink:href="#m1f5d7d83b8" x="284.705517" y="139.531575" style="fill: #ffffff; stroke: #000000"/>
     <use xlink:href="#m1f5d7d83b8" x="308.930261" y="132.111833" style="fill: #ffffff; stroke: #000000"/>
     <use xlink:href="#m1f5d7d83b8" x="319.643661" y="145.540206" style="fill: #ffffff; stroke: #000000"/>
     <use xlink:href="#m1f5d7d83b8" x="326.820348" y="143.388365" style="fill: #ffffff; stroke: #000000"/>
     <use xlink:href="#m1f5d7d83b8" x="358.361601" y="93.773642" style="fill: #ffffff; stroke: #000000"/>
     <use xlink:href="#m1f5d7d83b8" x="343.185289" y="133.004241" style="fill: #ffffff; stroke: #000000"/>
     <use xlink:href="#m1f5d7d83b8" x="337.963654" y="137.16707" style="fill: #ffffff; stroke: #000000"/>
     <use xlink:href="#m1f5d7d83b8" x="272.956763" y="153.98725" style="fill: #ffffff; stroke: #000000"/>
     <use xlink:href="#m1f5d7d83b8" x="301.14648" y="149.852236" style="fill: #ffffff; stroke: #000000"/>
     <use xlink:href="#m1f5d7d83b8" x="313.060378" y="158.184084" style="fill: #ffffff; stroke: #000000"/>
     <use xlink:href="#m1f5d7d83b8" x="320.561419" y="155.139811" style="fill: #ffffff; stroke: #000000"/>
     <use xlink:href="#m1f5d7d83b8" x="354.435529" y="114.619814" style="fill: #ffffff; stroke: #000000"/>
     <use xlink:href="#m1f5d7d83b8" x="207.174163" y="205.277604" style="fill: #ffffff; stroke: #000000"/>
     <use xlink:href="#m1f5d7d83b8" x="351.836142" y="132.282721" style="fill: #ffffff; stroke: #000000"/>
     <use xlink:href="#m1f5d7d83b8" x="364.048253" y="129.397047" style="fill: #ffffff; stroke: #000000"/>
     <use xlink:href="#m1f5d7d83b8" x="345.716984" y="137.492359" style="fill: #ffffff; stroke: #000000"/>
     <use xlink:href="#m1f5d7d83b8" x="355.976597" y="131.7157" style="fill: #ffffff; stroke: #000000"/>
     <use xlink:href="#m1f5d7d83b8" x="368.208535" y="90.772556" style="fill: #ffffff; stroke: #000000"/>
     <use xlink:href="#m1f5d7d83b8" x="344.133595" y="149.524408" style="fill: #ffffff; stroke: #000000"/>
     <use xlink:href="#m1f5d7d83b8" x="357.211612" y="149.097977" style="fill: #ffffff; stroke: #000000"/>
     <use xlink:href="#m1f5d7d83b8" x="335.101839" y="153.276025" style="fill: #ffffff; stroke: #000000"/>
     <use xlink:href="#m1f5d7d83b8" x="346.8373" y="148.173469" style="fill: #ffffff; stroke: #000000"/>
     <use xlink:href="#m1f5d7d83b8" x="359.963806" y="115.749042" style="fill: #ffffff; stroke: #000000"/>
     <use xlink:href="#m1f5d7d83b8" x="232.92323" y="228.546269" style="fill: #ffffff; stroke: #000000"/>
     <use xlink:href="#m1f5d7d83b8" x="268.252349" y="232.563062" style="fill: #ffffff; stroke: #000000"/>
     <use xlink:href="#m1f5d7d83b8" x="271.963968" y="230.532361" style="fill: #ffffff; stroke: #000000"/>
     <use xlink:href="#m1f5d7d83b8" x="328.392765" y="186.862147" style="fill: #ffffff; stroke: #000000"/>
     <use xlink:href="#m1f5d7d83b8" x="281.997602" y="235.86803" style="fill: #ffffff; stroke: #000000"/>
     <use xlink:href="#m1f5d7d83b8" x="269.088731" y="236.881147" style="fill: #ffffff; stroke: #000000"/>
     <use xlink:href="#m1f5d7d83b8" x="323.162783" y="196.437192" style="fill: #ffffff; stroke: #000000"/>
     <use xlink:href="#m1f5d7d83b8" x="209.677238" y="240.309598" style="fill: #ffffff; stroke: #000000"/>
     <use xlink:href="#m1f5d7d83b8" x="296.129813" y="189.063375" style="fill: #ffffff; stroke: #000000"/>
     <use xlink:href="#m1f5d7d83b8" x="284.106209" y="188.918287" style="fill: #ffffff; stroke: #000000"/>
    </g>
   </g>
   <g id="PathCollection_2">
    <defs>
     <path id="m145200175c" d="M 0 3 
C 0.795609 3 1.55874 2.683901 2.12132 2.12132 
C 2.683901 1.55874 3 0.795609 3 0 
C 3 -0.795609 2.683901 -1.55874 2.12132 -2.12132 
C 1.55874 -2.683901 0.795609 -3 0 -3 
C -0.795609 -3 -1.55874 -2.683901 -2.12132 -2.12132 
C -2.683901 -1.55874 -3 -0.795609 -3 0 
C -3 0.795609 -2.683901 1.55874 -2.12132 2.12132 
C -1.55874 2.683901 -0.795609 3 0 3 
z
" style="stroke: #d62728"/>
    </defs>
    <g clip-path="url(#p7b708b3d36)">
     <use xlink:href="#m145200175c" x="243.847251" y="231.779203" style="fill: #ffffff; stroke: #d62728"/>
     <use xlink:href="#m145200175c" x="307.677634" y="194.877623" style="fill: #ffffff; stroke: #d62728"/>
     <use xlink:href="#m145200175c" x="339.304788" y="187.43872" style="fill: #ffffff; stroke: #d62728"/>
     <use xlink:href="#m145200175c" x="370.720276" y="186.112248" style="fill: #ffffff; stroke: #d62728"/>
     <use xlink:href="#m145200175c" x="381.087469" y="166.532353" style="fill: #ffffff; stroke: #d62728"/>
     <use xlink:href="#m145200175c" x="381.924178" y="157.45884" style="fill: #ffffff; stroke: #d62728"/>
     <use xlink:href="#m145200175c" x="382.842403" y="175.215468" style="fill: #ffffff; stroke: #d62728"/>
     <use xlink:href="#m145200175c" x="270.306027" y="204.398757" style="fill: #ffffff; stroke: #d62728"/>
     <use xlink:href="#m145200175c" x="317.958724" y="197.780946" style="fill: #ffffff; stroke: #d62728"/>
     <use xlink:href="#m145200175c" x="357.587973" y="197.139783" style="fill: #ffffff; stroke: #d62728"/>
     <use xlink:href="#m145200175c" x="370.060798" y="179.372975" style="fill: #ffffff; stroke: #d62728"/>
     <use xlink:href="#m145200175c" x="370.994504" y="170.748923" style="fill: #ffffff; stroke: #d62728"/>
     <use xlink:href="#m145200175c" x="372.236296" y="187.035941" style="fill: #ffffff; stroke: #d62728"/>
     <use xlink:href="#m145200175c" x="265.500608" y="216.441111" style="fill: #ffffff; stroke: #d62728"/>
     <use xlink:href="#m145200175c" x="331.894454" y="212.559452" style="fill: #ffffff; stroke: #d62728"/>
     <use xlink:href="#m145200175c" x="349.177154" y="205.495853" style="fill: #ffffff; stroke: #d62728"/>
     <use xlink:href="#m145200175c" x="350.396969" y="195.253781" style="fill: #ffffff; stroke: #d62728"/>
     <use xlink:href="#m145200175c" x="352.156857" y="208.576762" style="fill: #ffffff; stroke: #d62728"/>
     <use xlink:href="#m145200175c" x="295.288385" y="229.151862" style="fill: #ffffff; stroke: #d62728"/>
     <use xlink:href="#m145200175c" x="321.881726" y="225.424247" style="fill: #ffffff; stroke: #d62728"/>
     <use xlink:href="#m145200175c" x="323.667701" y="212.213023" style="fill: #ffffff; stroke: #d62728"/>
     <use xlink:href="#m145200175c" x="326.201814" y="227.576621" style="fill: #ffffff; stroke: #d62728"/>
     <use xlink:href="#m145200175c" x="239.788964" y="235.671579" style="fill: #ffffff; stroke: #d62728"/>
     <use xlink:href="#m145200175c" x="244.166036" y="228.397929" style="fill: #ffffff; stroke: #d62728"/>
     <use xlink:href="#m145200175c" x="255.065016" y="236.618177" style="fill: #ffffff; stroke: #d62728"/>
     <use xlink:href="#m145200175c" x="73.832727" y="236.902611" style="fill: #ffffff; stroke: #d62728"/>
     <use xlink:href="#m145200175c" x="144.531104" y="240.954384" style="fill: #ffffff; stroke: #d62728"/>
     <use xlink:href="#m145200175c" x="147.638442" y="235.266947" style="fill: #ffffff; stroke: #d62728"/>
    </g>
   </g>
   <g id="PathCollection_3">
    <defs>
     <path id="m27de5652c6" d="M 0 3 
C 0.795609 3 1.55874 2.683901 2.12132 2.12132 
C 2.683901 1.55874 3 0.795609 3 0 
C 3 -0.795609 2.683901 -1.55874 2.12132 -2.12132 
C 1.55874 -2.683901 0.795609 -3 0 -3 
C -0.795609 -3 -1.55874 -2.683901 -2.12132 -2.12132 
C -2.683901 -1.55874 -3 -0.795609 -3 0 
C -3 0.795609 -2.683901 1.55874 -2.12132 2.12132 
C -1.55874 2.683901 -0.795609 3 0 3 
z
" style="stroke: #1f77b4"/>
    </defs>
    <g clip-path="url(#p7b708b3d36)">
     <use xlink:href="#m27de5652c6" x="207.174163" y="205.277604" style="fill: #ffffff; stroke: #1f77b4"/>
     <use xlink:href="#m27de5652c6" x="351.836142" y="132.282721" style="fill: #ffffff; stroke: #1f77b4"/>
     <use xlink:href="#m27de5652c6" x="364.048253" y="129.397047" style="fill: #ffffff; stroke: #1f77b4"/>
     <use xlink:href="#m27de5652c6" x="345.716984" y="137.492359" style="fill: #ffffff; stroke: #1f77b4"/>
     <use xlink:href="#m27de5652c6" x="355.976597" y="131.7157" style="fill: #ffffff; stroke: #1f77b4"/>
     <use xlink:href="#m27de5652c6" x="368.208535" y="90.772556" style="fill: #ffffff; stroke: #1f77b4"/>
     <use xlink:href="#m27de5652c6" x="344.133595" y="149.524408" style="fill: #ffffff; stroke: #1f77b4"/>
     <use xlink:href="#m27de5652c6" x="357.211612" y="149.097977" style="fill: #ffffff; stroke: #1f77b4"/>
     <use xlink:href="#m27de5652c6" x="335.101839" y="153.276025" style="fill: #ffffff; stroke: #1f77b4"/>
     <use xlink:href="#m27de5652c6" x="346.8373" y="148.173469" style="fill: #ffffff; stroke: #1f77b4"/>
     <use xlink:href="#m27de5652c6" x="359.963806" y="115.749042" style="fill: #ffffff; stroke: #1f77b4"/>
     <use xlink:href="#m27de5652c6" x="232.92323" y="228.546269" style="fill: #ffffff; stroke: #1f77b4"/>
     <use xlink:href="#m27de5652c6" x="268.252349" y="232.563062" style="fill: #ffffff; stroke: #1f77b4"/>
     <use xlink:href="#m27de5652c6" x="271.963968" y="230.532361" style="fill: #ffffff; stroke: #1f77b4"/>
     <use xlink:href="#m27de5652c6" x="328.392765" y="186.862147" style="fill: #ffffff; stroke: #1f77b4"/>
     <use xlink:href="#m27de5652c6" x="281.997602" y="235.86803" style="fill: #ffffff; stroke: #1f77b4"/>
     <use xlink:href="#m27de5652c6" x="269.088731" y="236.881147" style="fill: #ffffff; stroke: #1f77b4"/>
     <use xlink:href="#m27de5652c6" x="323.162783" y="196.437192" style="fill: #ffffff; stroke: #1f77b4"/>
     <use xlink:href="#m27de5652c6" x="209.677238" y="240.309598" style="fill: #ffffff; stroke: #1f77b4"/>
     <use xlink:href="#m27de5652c6" x="296.129813" y="189.063375" style="fill: #ffffff; stroke: #1f77b4"/>
     <use xlink:href="#m27de5652c6" x="284.106209" y="188.918287" style="fill: #ffffff; stroke: #1f77b4"/>
    </g>
   </g>
   <g id="matplotlib.axis_1">
    <g id="xtick_1">
     <g id="line2d_1">
      <defs>
       <path id="me4e014f85c" d="M 0 0 
L 0 3.5 
" style="stroke: #000000; stroke-width: 0.8"/>
      </defs>
      <g>
       <use xlink:href="#me4e014f85c" x="70.488852" y="307.584" style="stroke: #000000; stroke-width: 0.8"/>
      </g>
     </g>
     <g id="text_1">
      <!-- 4 -->
      <g transform="translate(67.307602 322.182437) scale(0.1 -0.1)">
       <defs>
        <path id="DejaVuSans-34" d="M 2419 4116 
L 825 1625 
L 2419 1625 
L 2419 4116 
z
M 2253 4666 
L 3047 4666 
L 3047 1625 
L 3713 1625 
L 3713 1100 
L 3047 1100 
L 3047 0 
L 2419 0 
L 2419 1100 
L 313 1100 
L 313 1709 
L 2253 4666 
z
" transform="scale(0.015625)"/>
       </defs>
       <use xlink:href="#DejaVuSans-34"/>
      </g>
     </g>
    </g>
    <g id="xtick_2">
     <g id="line2d_2">
      <g>
       <use xlink:href="#me4e014f85c" x="142.808476" y="307.584" style="stroke: #000000; stroke-width: 0.8"/>
      </g>
     </g>
     <g id="text_2">
      <!-- 5 -->
      <g transform="translate(139.627226 322.182437) scale(0.1 -0.1)">
       <defs>
        <path id="DejaVuSans-35" d="M 691 4666 
L 3169 4666 
L 3169 4134 
L 1269 4134 
L 1269 2991 
Q 1406 3038 1543 3061 
Q 1681 3084 1819 3084 
Q 2600 3084 3056 2656 
Q 3513 2228 3513 1497 
Q 3513 744 3044 326 
Q 2575 -91 1722 -91 
Q 1428 -91 1123 -41 
Q 819 9 494 109 
L 494 744 
Q 775 591 1075 516 
Q 1375 441 1709 441 
Q 2250 441 2565 725 
Q 2881 1009 2881 1497 
Q 2881 1984 2565 2268 
Q 2250 2553 1709 2553 
Q 1456 2553 1204 2497 
Q 953 2441 691 2322 
L 691 4666 
z
" transform="scale(0.015625)"/>
       </defs>
       <use xlink:href="#DejaVuSans-35"/>
      </g>
     </g>
    </g>
    <g id="xtick_3">
     <g id="line2d_3">
      <g>
       <use xlink:href="#me4e014f85c" x="215.1281" y="307.584" style="stroke: #000000; stroke-width: 0.8"/>
      </g>
     </g>
     <g id="text_3">
      <!-- 6 -->
      <g transform="translate(211.94685 322.182437) scale(0.1 -0.1)">
       <defs>
        <path id="DejaVuSans-36" d="M 2113 2584 
Q 1688 2584 1439 2293 
Q 1191 2003 1191 1497 
Q 1191 994 1439 701 
Q 1688 409 2113 409 
Q 2538 409 2786 701 
Q 3034 994 3034 1497 
Q 3034 2003 2786 2293 
Q 2538 2584 2113 2584 
z
M 3366 4563 
L 3366 3988 
Q 3128 4100 2886 4159 
Q 2644 4219 2406 4219 
Q 1781 4219 1451 3797 
Q 1122 3375 1075 2522 
Q 1259 2794 1537 2939 
Q 1816 3084 2150 3084 
Q 2853 3084 3261 2657 
Q 3669 2231 3669 1497 
Q 3669 778 3244 343 
Q 2819 -91 2113 -91 
Q 1303 -91 875 529 
Q 447 1150 447 2328 
Q 447 3434 972 4092 
Q 1497 4750 2381 4750 
Q 2619 4750 2861 4703 
Q 3103 4656 3366 4563 
z
" transform="scale(0.015625)"/>
       </defs>
       <use xlink:href="#DejaVuSans-36"/>
      </g>
     </g>
    </g>
    <g id="xtick_4">
     <g id="line2d_4">
      <g>
       <use xlink:href="#me4e014f85c" x="287.447725" y="307.584" style="stroke: #000000; stroke-width: 0.8"/>
      </g>
     </g>
     <g id="text_4">
      <!-- 7 -->
      <g transform="translate(284.266475 322.182437) scale(0.1 -0.1)">
       <defs>
        <path id="DejaVuSans-37" d="M 525 4666 
L 3525 4666 
L 3525 4397 
L 1831 0 
L 1172 0 
L 2766 4134 
L 525 4134 
L 525 4666 
z
" transform="scale(0.015625)"/>
       </defs>
       <use xlink:href="#DejaVuSans-37"/>
      </g>
     </g>
    </g>
    <g id="xtick_5">
     <g id="line2d_5">
      <g>
       <use xlink:href="#me4e014f85c" x="359.767349" y="307.584" style="stroke: #000000; stroke-width: 0.8"/>
      </g>
     </g>
     <g id="text_5">
      <!-- 8 -->
      <g transform="translate(356.586099 322.182437) scale(0.1 -0.1)">
       <defs>
        <path id="DejaVuSans-38" d="M 2034 2216 
Q 1584 2216 1326 1975 
Q 1069 1734 1069 1313 
Q 1069 891 1326 650 
Q 1584 409 2034 409 
Q 2484 409 2743 651 
Q 3003 894 3003 1313 
Q 3003 1734 2745 1975 
Q 2488 2216 2034 2216 
z
M 1403 2484 
Q 997 2584 770 2862 
Q 544 3141 544 3541 
Q 544 4100 942 4425 
Q 1341 4750 2034 4750 
Q 2731 4750 3128 4425 
Q 3525 4100 3525 3541 
Q 3525 3141 3298 2862 
Q 3072 2584 2669 2484 
Q 3125 2378 3379 2068 
Q 3634 1759 3634 1313 
Q 3634 634 3220 271 
Q 2806 -91 2034 -91 
Q 1263 -91 848 271 
Q 434 634 434 1313 
Q 434 1759 690 2068 
Q 947 2378 1403 2484 
z
M 1172 3481 
Q 1172 3119 1398 2916 
Q 1625 2713 2034 2713 
Q 2441 2713 2670 2916 
Q 2900 3119 2900 3481 
Q 2900 3844 2670 4047 
Q 2441 4250 2034 4250 
Q 1625 4250 1398 4047 
Q 1172 3844 1172 3481 
z
" transform="scale(0.015625)"/>
       </defs>
       <use xlink:href="#DejaVuSans-38"/>
      </g>
     </g>
    </g>
    <g id="text_6">
     <!-- ln(distance in km) -->
     <g transform="translate(191.012344 335.860562) scale(0.1 -0.1)">
      <defs>
       <path id="DejaVuSans-6c" d="M 603 4863 
L 1178 4863 
L 1178 0 
L 603 0 
L 603 4863 
z
" transform="scale(0.015625)"/>
       <path id="DejaVuSans-6e" d="M 3513 2113 
L 3513 0 
L 2938 0 
L 2938 2094 
Q 2938 2591 2744 2837 
Q 2550 3084 2163 3084 
Q 1697 3084 1428 2787 
Q 1159 2491 1159 1978 
L 1159 0 
L 581 0 
L 581 3500 
L 1159 3500 
L 1159 2956 
Q 1366 3272 1645 3428 
Q 1925 3584 2291 3584 
Q 2894 3584 3203 3211 
Q 3513 2838 3513 2113 
z
" transform="scale(0.015625)"/>
       <path id="DejaVuSans-28" d="M 1984 4856 
Q 1566 4138 1362 3434 
Q 1159 2731 1159 2009 
Q 1159 1288 1364 580 
Q 1569 -128 1984 -844 
L 1484 -844 
Q 1016 -109 783 600 
Q 550 1309 550 2009 
Q 550 2706 781 3412 
Q 1013 4119 1484 4856 
L 1984 4856 
z
" transform="scale(0.015625)"/>
       <path id="DejaVuSans-64" d="M 2906 2969 
L 2906 4863 
L 3481 4863 
L 3481 0 
L 2906 0 
L 2906 525 
Q 2725 213 2448 61 
Q 2172 -91 1784 -91 
Q 1150 -91 751 415 
Q 353 922 353 1747 
Q 353 2572 751 3078 
Q 1150 3584 1784 3584 
Q 2172 3584 2448 3432 
Q 2725 3281 2906 2969 
z
M 947 1747 
Q 947 1113 1208 752 
Q 1469 391 1925 391 
Q 2381 391 2643 752 
Q 2906 1113 2906 1747 
Q 2906 2381 2643 2742 
Q 2381 3103 1925 3103 
Q 1469 3103 1208 2742 
Q 947 2381 947 1747 
z
" transform="scale(0.015625)"/>
       <path id="DejaVuSans-69" d="M 603 3500 
L 1178 3500 
L 1178 0 
L 603 0 
L 603 3500 
z
M 603 4863 
L 1178 4863 
L 1178 4134 
L 603 4134 
L 603 4863 
z
" transform="scale(0.015625)"/>
       <path id="DejaVuSans-73" d="M 2834 3397 
L 2834 2853 
Q 2591 2978 2328 3040 
Q 2066 3103 1784 3103 
Q 1356 3103 1142 2972 
Q 928 2841 928 2578 
Q 928 2378 1081 2264 
Q 1234 2150 1697 2047 
L 1894 2003 
Q 2506 1872 2764 1633 
Q 3022 1394 3022 966 
Q 3022 478 2636 193 
Q 2250 -91 1575 -91 
Q 1294 -91 989 -36 
Q 684 19 347 128 
L 347 722 
Q 666 556 975 473 
Q 1284 391 1588 391 
Q 1994 391 2212 530 
Q 2431 669 2431 922 
Q 2431 1156 2273 1281 
Q 2116 1406 1581 1522 
L 1381 1569 
Q 847 1681 609 1914 
Q 372 2147 372 2553 
Q 372 3047 722 3315 
Q 1072 3584 1716 3584 
Q 2034 3584 2315 3537 
Q 2597 3491 2834 3397 
z
" transform="scale(0.015625)"/>
       <path id="DejaVuSans-74" d="M 1172 4494 
L 1172 3500 
L 2356 3500 
L 2356 3053 
L 1172 3053 
L 1172 1153 
Q 1172 725 1289 603 
Q 1406 481 1766 481 
L 2356 481 
L 2356 0 
L 1766 0 
Q 1100 0 847 248 
Q 594 497 594 1153 
L 594 3053 
L 172 3053 
L 172 3500 
L 594 3500 
L 594 4494 
L 1172 4494 
z
" transform="scale(0.015625)"/>
       <path id="DejaVuSans-61" d="M 2194 1759 
Q 1497 1759 1228 1600 
Q 959 1441 959 1056 
Q 959 750 1161 570 
Q 1363 391 1709 391 
Q 2188 391 2477 730 
Q 2766 1069 2766 1631 
L 2766 1759 
L 2194 1759 
z
M 3341 1997 
L 3341 0 
L 2766 0 
L 2766 531 
Q 2569 213 2275 61 
Q 1981 -91 1556 -91 
Q 1019 -91 701 211 
Q 384 513 384 1019 
Q 384 1609 779 1909 
Q 1175 2209 1959 2209 
L 2766 2209 
L 2766 2266 
Q 2766 2663 2505 2880 
Q 2244 3097 1772 3097 
Q 1472 3097 1187 3025 
Q 903 2953 641 2809 
L 641 3341 
Q 956 3463 1253 3523 
Q 1550 3584 1831 3584 
Q 2591 3584 2966 3190 
Q 3341 2797 3341 1997 
z
" transform="scale(0.015625)"/>
       <path id="DejaVuSans-63" d="M 3122 3366 
L 3122 2828 
Q 2878 2963 2633 3030 
Q 2388 3097 2138 3097 
Q 1578 3097 1268 2742 
Q 959 2388 959 1747 
Q 959 1106 1268 751 
Q 1578 397 2138 397 
Q 2388 397 2633 464 
Q 2878 531 3122 666 
L 3122 134 
Q 2881 22 2623 -34 
Q 2366 -91 2075 -91 
Q 1284 -91 818 406 
Q 353 903 353 1747 
Q 353 2603 823 3093 
Q 1294 3584 2113 3584 
Q 2378 3584 2631 3529 
Q 2884 3475 3122 3366 
z
" transform="scale(0.015625)"/>
       <path id="DejaVuSans-65" d="M 3597 1894 
L 3597 1613 
L 953 1613 
Q 991 1019 1311 708 
Q 1631 397 2203 397 
Q 2534 397 2845 478 
Q 3156 559 3463 722 
L 3463 178 
Q 3153 47 2828 -22 
Q 2503 -91 2169 -91 
Q 1331 -91 842 396 
Q 353 884 353 1716 
Q 353 2575 817 3079 
Q 1281 3584 2069 3584 
Q 2775 3584 3186 3129 
Q 3597 2675 3597 1894 
z
M 3022 2063 
Q 3016 2534 2758 2815 
Q 2500 3097 2075 3097 
Q 1594 3097 1305 2825 
Q 1016 2553 972 2059 
L 3022 2063 
z
" transform="scale(0.015625)"/>
       <path id="DejaVuSans-20" transform="scale(0.015625)"/>
       <path id="DejaVuSans-6b" d="M 581 4863 
L 1159 4863 
L 1159 1991 
L 2875 3500 
L 3609 3500 
L 1753 1863 
L 3688 0 
L 2938 0 
L 1159 1709 
L 1159 0 
L 581 0 
L 581 4863 
z
" transform="scale(0.015625)"/>
       <path id="DejaVuSans-6d" d="M 3328 2828 
Q 3544 3216 3844 3400 
Q 4144 3584 4550 3584 
Q 5097 3584 5394 3201 
Q 5691 2819 5691 2113 
L 5691 0 
L 5113 0 
L 5113 2094 
Q 5113 2597 4934 2840 
Q 4756 3084 4391 3084 
Q 3944 3084 3684 2787 
Q 3425 2491 3425 1978 
L 3425 0 
L 2847 0 
L 2847 2094 
Q 2847 2600 2669 2842 
Q 2491 3084 2119 3084 
Q 1678 3084 1418 2786 
Q 1159 2488 1159 1978 
L 1159 0 
L 581 0 
L 581 3500 
L 1159 3500 
L 1159 2956 
Q 1356 3278 1631 3431 
Q 1906 3584 2284 3584 
Q 2666 3584 2933 3390 
Q 3200 3197 3328 2828 
z
" transform="scale(0.015625)"/>
       <path id="DejaVuSans-29" d="M 513 4856 
L 1013 4856 
Q 1481 4119 1714 3412 
Q 1947 2706 1947 2009 
Q 1947 1309 1714 600 
Q 1481 -109 1013 -844 
L 513 -844 
Q 928 -128 1133 580 
Q 1338 1288 1338 2009 
Q 1338 2731 1133 3434 
Q 928 4138 513 4856 
z
" transform="scale(0.015625)"/>
      </defs>
      <use xlink:href="#DejaVuSans-6c"/>
      <use xlink:href="#DejaVuSans-6e" transform="translate(27.783203 0)"/>
      <use xlink:href="#DejaVuSans-28" transform="translate(91.162109 0)"/>
      <use xlink:href="#DejaVuSans-64" transform="translate(130.175781 0)"/>
      <use xlink:href="#DejaVuSans-69" transform="translate(193.652344 0)"/>
      <use xlink:href="#DejaVuSans-73" transform="translate(221.435547 0)"/>
      <use xlink:href="#DejaVuSans-74" transform="translate(273.535156 0)"/>
      <use xlink:href="#DejaVuSans-61" transform="translate(312.744141 0)"/>
      <use xlink:href="#DejaVuSans-6e" transform="translate(374.023438 0)"/>
      <use xlink:href="#DejaVuSans-63" transform="translate(437.402344 0)"/>
      <use xlink:href="#DejaVuSans-65" transform="translate(492.382812 0)"/>
      <use xlink:href="#DejaVuSans-20" transform="translate(553.90625 0)"/>
      <use xlink:href="#DejaVuSans-69" transform="translate(585.693359 0)"/>
      <use xlink:href="#DejaVuSans-6e" transform="translate(613.476562 0)"/>
      <use xlink:href="#DejaVuSans-20" transform="translate(676.855469 0)"/>
      <use xlink:href="#DejaVuSans-6b" transform="translate(708.642578 0)"/>
      <use xlink:href="#DejaVuSans-6d" transform="translate(766.552734 0)"/>
      <use xlink:href="#DejaVuSans-29" transform="translate(863.964844 0)"/>
     </g>
    </g>
   </g>
   <g id="matplotlib.axis_2">
    <g id="ytick_1">
     <g id="line2d_6">
      <defs>
       <path id="m0c2f6bf518" d="M 0 0 
L -3.5 0 
" style="stroke: #000000; stroke-width: 0.8"/>
      </defs>
      <g>
       <use xlink:href="#m0c2f6bf518" x="57.6" y="290.5609" style="stroke: #000000; stroke-width: 0.8"/>
      </g>
     </g>
     <g id="text_7">
      <!-- −0.05 -->
      <g transform="translate(19.954687 294.360119) scale(0.1 -0.1)">
       <defs>
        <path id="DejaVuSans-2212" d="M 678 2272 
L 4684 2272 
L 4684 1741 
L 678 1741 
L 678 2272 
z
" transform="scale(0.015625)"/>
        <path id="DejaVuSans-30" d="M 2034 4250 
Q 1547 4250 1301 3770 
Q 1056 3291 1056 2328 
Q 1056 1369 1301 889 
Q 1547 409 2034 409 
Q 2525 409 2770 889 
Q 3016 1369 3016 2328 
Q 3016 3291 2770 3770 
Q 2525 4250 2034 4250 
z
M 2034 4750 
Q 2819 4750 3233 4129 
Q 3647 3509 3647 2328 
Q 3647 1150 3233 529 
Q 2819 -91 2034 -91 
Q 1250 -91 836 529 
Q 422 1150 422 2328 
Q 422 3509 836 4129 
Q 1250 4750 2034 4750 
z
" transform="scale(0.015625)"/>
        <path id="DejaVuSans-2e" d="M 684 794 
L 1344 794 
L 1344 0 
L 684 0 
L 684 794 
z
" transform="scale(0.015625)"/>
       </defs>
       <use xlink:href="#DejaVuSans-2212"/>
       <use xlink:href="#DejaVuSans-30" transform="translate(83.789062 0)"/>
       <use xlink:href="#DejaVuSans-2e" transform="translate(147.412109 0)"/>
       <use xlink:href="#DejaVuSans-30" transform="translate(179.199219 0)"/>
       <use xlink:href="#DejaVuSans-35" transform="translate(242.822266 0)"/>
      </g>
     </g>
    </g>
    <g id="ytick_2">
     <g id="line2d_7">
      <g>
       <use xlink:href="#m0c2f6bf518" x="57.6" y="242.228317" style="stroke: #000000; stroke-width: 0.8"/>
      </g>
     </g>
     <g id="text_8">
      <!-- 0.00 -->
      <g transform="translate(28.334375 246.027536) scale(0.1 -0.1)">
       <use xlink:href="#DejaVuSans-30"/>
       <use xlink:href="#DejaVuSans-2e" transform="translate(63.623047 0)"/>
       <use xlink:href="#DejaVuSans-30" transform="translate(95.410156 0)"/>
       <use xlink:href="#DejaVuSans-30" transform="translate(159.033203 0)"/>
      </g>
     </g>
    </g>
    <g id="ytick_3">
     <g id="line2d_8">
      <g>
       <use xlink:href="#m0c2f6bf518" x="57.6" y="193.895735" style="stroke: #000000; stroke-width: 0.8"/>
      </g>
     </g>
     <g id="text_9">
      <!-- 0.05 -->
      <g transform="translate(28.334375 197.694954) scale(0.1 -0.1)">
       <use xlink:href="#DejaVuSans-30"/>
       <use xlink:href="#DejaVuSans-2e" transform="translate(63.623047 0)"/>
       <use xlink:href="#DejaVuSans-30" transform="translate(95.410156 0)"/>
       <use xlink:href="#DejaVuSans-35" transform="translate(159.033203 0)"/>
      </g>
     </g>
    </g>
    <g id="ytick_4">
     <g id="line2d_9">
      <g>
       <use xlink:href="#m0c2f6bf518" x="57.6" y="145.563153" style="stroke: #000000; stroke-width: 0.8"/>
      </g>
     </g>
     <g id="text_10">
      <!-- 0.10 -->
      <g transform="translate(28.334375 149.362371) scale(0.1 -0.1)">
       <defs>
        <path id="DejaVuSans-31" d="M 794 531 
L 1825 531 
L 1825 4091 
L 703 3866 
L 703 4441 
L 1819 4666 
L 2450 4666 
L 2450 531 
L 3481 531 
L 3481 0 
L 794 0 
L 794 531 
z
" transform="scale(0.015625)"/>
       </defs>
       <use xlink:href="#DejaVuSans-30"/>
       <use xlink:href="#DejaVuSans-2e" transform="translate(63.623047 0)"/>
       <use xlink:href="#DejaVuSans-31" transform="translate(95.410156 0)"/>
       <use xlink:href="#DejaVuSans-30" transform="translate(159.033203 0)"/>
      </g>
     </g>
    </g>
    <g id="ytick_5">
     <g id="line2d_10">
      <g>
       <use xlink:href="#m0c2f6bf518" x="57.6" y="97.23057" style="stroke: #000000; stroke-width: 0.8"/>
      </g>
     </g>
     <g id="text_11">
      <!-- 0.15 -->
      <g transform="translate(28.334375 101.029789) scale(0.1 -0.1)">
       <use xlink:href="#DejaVuSans-30"/>
       <use xlink:href="#DejaVuSans-2e" transform="translate(63.623047 0)"/>
       <use xlink:href="#DejaVuSans-31" transform="translate(95.410156 0)"/>
       <use xlink:href="#DejaVuSans-35" transform="translate(159.033203 0)"/>
      </g>
     </g>
    </g>
    <g id="ytick_6">
     <g id="line2d_11">
      <g>
       <use xlink:href="#m0c2f6bf518" x="57.6" y="48.897988" style="stroke: #000000; stroke-width: 0.8"/>
      </g>
     </g>
     <g id="text_12">
      <!-- 0.20 -->
      <g transform="translate(28.334375 52.697206) scale(0.1 -0.1)">
       <defs>
        <path id="DejaVuSans-32" d="M 1228 531 
L 3431 531 
L 3431 0 
L 469 0 
L 469 531 
Q 828 903 1448 1529 
Q 2069 2156 2228 2338 
Q 2531 2678 2651 2914 
Q 2772 3150 2772 3378 
Q 2772 3750 2511 3984 
Q 2250 4219 1831 4219 
Q 1534 4219 1204 4116 
Q 875 4013 500 3803 
L 500 4441 
Q 881 4594 1212 4672 
Q 1544 4750 1819 4750 
Q 2544 4750 2975 4387 
Q 3406 4025 3406 3419 
Q 3406 3131 3298 2873 
Q 3191 2616 2906 2266 
Q 2828 2175 2409 1742 
Q 1991 1309 1228 531 
z
" transform="scale(0.015625)"/>
       </defs>
       <use xlink:href="#DejaVuSans-30"/>
       <use xlink:href="#DejaVuSans-2e" transform="translate(63.623047 0)"/>
       <use xlink:href="#DejaVuSans-32" transform="translate(95.410156 0)"/>
       <use xlink:href="#DejaVuSans-30" transform="translate(159.033203 0)"/>
      </g>
     </g>
    </g>
    <g id="text_13">
     <!-- Fst/(1-Fst) -->
     <g transform="translate(13.875 199.980344) rotate(-90) scale(0.1 -0.1)">
      <defs>
       <path id="DejaVuSans-46" d="M 628 4666 
L 3309 4666 
L 3309 4134 
L 1259 4134 
L 1259 2759 
L 3109 2759 
L 3109 2228 
L 1259 2228 
L 1259 0 
L 628 0 
L 628 4666 
z
" transform="scale(0.015625)"/>
       <path id="DejaVuSans-2f" d="M 1625 4666 
L 2156 4666 
L 531 -594 
L 0 -594 
L 1625 4666 
z
" transform="scale(0.015625)"/>
       <path id="DejaVuSans-2d" d="M 313 2009 
L 1997 2009 
L 1997 1497 
L 313 1497 
L 313 2009 
z
" transform="scale(0.015625)"/>
      </defs>
      <use xlink:href="#DejaVuSans-46"/>
      <use xlink:href="#DejaVuSans-73" transform="translate(57.519531 0)"/>
      <use xlink:href="#DejaVuSans-74" transform="translate(109.619141 0)"/>
      <use xlink:href="#DejaVuSans-2f" transform="translate(148.828125 0)"/>
      <use xlink:href="#DejaVuSans-28" transform="translate(182.519531 0)"/>
      <use xlink:href="#DejaVuSans-31" transform="translate(221.533203 0)"/>
      <use xlink:href="#DejaVuSans-2d" transform="translate(285.15625 0)"/>
      <use xlink:href="#DejaVuSans-46" transform="translate(321.240234 0)"/>
      <use xlink:href="#DejaVuSans-73" transform="translate(378.759766 0)"/>
      <use xlink:href="#DejaVuSans-74" transform="translate(430.859375 0)"/>
      <use xlink:href="#DejaVuSans-29" transform="translate(470.068359 0)"/>
     </g>
    </g>
   </g>
   <g id="line2d_12">
    <path d="M 73.832727 295.488 
L 398.487273 119.090854 
" clip-path="url(#p7b708b3d36)" style="fill: none; stroke-dasharray: 5.55,2.4; stroke-dashoffset: 0; stroke: #000000; stroke-width: 1.5"/>
   </g>
   <g id="line2d_13">
    <path d="M 73.832727 261.899774 
L 382.842403 187.261128 
" clip-path="url(#p7b708b3d36)" style="fill: none; stroke-dasharray: 5.55,2.4; stroke-dashoffset: 0; stroke: #d62728; stroke-width: 1.5"/>
   </g>
   <g id="line2d_14">
    <path d="M 207.174163 257.23782 
L 368.208535 130.487063 
" clip-path="url(#p7b708b3d36)" style="fill: none; stroke-dasharray: 5.55,2.4; stroke-dashoffset: 0; stroke: #1f77b4; stroke-width: 1.5"/>
   </g>
   <g id="patch_3">
    <path d="M 57.6 307.584 
L 57.6 41.472 
" style="fill: none; stroke: #000000; stroke-width: 0.8; stroke-linejoin: miter; stroke-linecap: square"/>
   </g>
   <g id="patch_4">
    <path d="M 414.72 307.584 
L 414.72 41.472 
" style="fill: none; stroke: #000000; stroke-width: 0.8; stroke-linejoin: miter; stroke-linecap: square"/>
   </g>
   <g id="patch_5">
    <path d="M 57.6 307.584 
L 414.72 307.584 
" style="fill: none; stroke: #000000; stroke-width: 0.8; stroke-linejoin: miter; stroke-linecap: square"/>
   </g>
   <g id="patch_6">
    <path d="M 57.6 41.472 
L 414.72 41.472 
" style="fill: none; stroke: #000000; stroke-width: 0.8; stroke-linejoin: miter; stroke-linecap: square"/>
   </g>
   <g id="text_14">
    <!-- R=0.459 -->
    <g transform="translate(73.815555 58.564504) scale(0.1 -0.1)">
     <defs>
      <path id="DejaVuSans-52" d="M 2841 2188 
Q 3044 2119 3236 1894 
Q 3428 1669 3622 1275 
L 4263 0 
L 3584 0 
L 2988 1197 
Q 2756 1666 2539 1819 
Q 2322 1972 1947 1972 
L 1259 1972 
L 1259 0 
L 628 0 
L 628 4666 
L 2053 4666 
Q 2853 4666 3247 4331 
Q 3641 3997 3641 3322 
Q 3641 2881 3436 2590 
Q 3231 2300 2841 2188 
z
M 1259 4147 
L 1259 2491 
L 2053 2491 
Q 2509 2491 2742 2702 
Q 2975 2913 2975 3322 
Q 2975 3731 2742 3939 
Q 2509 4147 2053 4147 
L 1259 4147 
z
" transform="scale(0.015625)"/>
      <path id="DejaVuSans-3d" d="M 678 2906 
L 4684 2906 
L 4684 2381 
L 678 2381 
L 678 2906 
z
M 678 1631 
L 4684 1631 
L 4684 1100 
L 678 1100 
L 678 1631 
z
" transform="scale(0.015625)"/>
      <path id="DejaVuSans-39" d="M 703 97 
L 703 672 
Q 941 559 1184 500 
Q 1428 441 1663 441 
Q 2288 441 2617 861 
Q 2947 1281 2994 2138 
Q 2813 1869 2534 1725 
Q 2256 1581 1919 1581 
Q 1219 1581 811 2004 
Q 403 2428 403 3163 
Q 403 3881 828 4315 
Q 1253 4750 1959 4750 
Q 2769 4750 3195 4129 
Q 3622 3509 3622 2328 
Q 3622 1225 3098 567 
Q 2575 -91 1691 -91 
Q 1453 -91 1209 -44 
Q 966 3 703 97 
z
M 1959 2075 
Q 2384 2075 2632 2365 
Q 2881 2656 2881 3163 
Q 2881 3666 2632 3958 
Q 2384 4250 1959 4250 
Q 1534 4250 1286 3958 
Q 1038 3666 1038 3163 
Q 1038 2656 1286 2365 
Q 1534 2075 1959 2075 
z
" transform="scale(0.015625)"/>
     </defs>
     <use xlink:href="#DejaVuSans-52"/>
     <use xlink:href="#DejaVuSans-3d" transform="translate(69.482422 0)"/>
     <use xlink:href="#DejaVuSans-30" transform="translate(153.271484 0)"/>
     <use xlink:href="#DejaVuSans-2e" transform="translate(216.894531 0)"/>
     <use xlink:href="#DejaVuSans-34" transform="translate(248.681641 0)"/>
     <use xlink:href="#DejaVuSans-35" transform="translate(312.304688 0)"/>
     <use xlink:href="#DejaVuSans-39" transform="translate(375.927734 0)"/>
    </g>
   </g>
   <g id="text_15">
    <!-- R=0.618 -->
    <g style="fill: #d62728" transform="translate(73.815555 77.897537) scale(0.1 -0.1)">
     <use xlink:href="#DejaVuSans-52"/>
     <use xlink:href="#DejaVuSans-3d" transform="translate(69.482422 0)"/>
     <use xlink:href="#DejaVuSans-30" transform="translate(153.271484 0)"/>
     <use xlink:href="#DejaVuSans-2e" transform="translate(216.894531 0)"/>
     <use xlink:href="#DejaVuSans-36" transform="translate(248.681641 0)"/>
     <use xlink:href="#DejaVuSans-31" transform="translate(312.304688 0)"/>
     <use xlink:href="#DejaVuSans-38" transform="translate(375.927734 0)"/>
    </g>
   </g>
   <g id="text_16">
    <!-- R=0.759 -->
    <g style="fill: #1f77b4" transform="translate(73.815555 97.23057) scale(0.1 -0.1)">
     <use xlink:href="#DejaVuSans-52"/>
     <use xlink:href="#DejaVuSans-3d" transform="translate(69.482422 0)"/>
     <use xlink:href="#DejaVuSans-30" transform="translate(153.271484 0)"/>
     <use xlink:href="#DejaVuSans-2e" transform="translate(216.894531 0)"/>
     <use xlink:href="#DejaVuSans-37" transform="translate(248.681641 0)"/>
     <use xlink:href="#DejaVuSans-35" transform="translate(312.304688 0)"/>
     <use xlink:href="#DejaVuSans-39" transform="translate(375.927734 0)"/>
    </g>
   </g>
   <g id="text_17">
    <!-- Isolation by Distance -->
    <g transform="translate(173.3475 35.472) scale(0.12 -0.12)">
     <defs>
      <path id="DejaVuSans-49" d="M 628 4666 
L 1259 4666 
L 1259 0 
L 628 0 
L 628 4666 
z
" transform="scale(0.015625)"/>
      <path id="DejaVuSans-6f" d="M 1959 3097 
Q 1497 3097 1228 2736 
Q 959 2375 959 1747 
Q 959 1119 1226 758 
Q 1494 397 1959 397 
Q 2419 397 2687 759 
Q 2956 1122 2956 1747 
Q 2956 2369 2687 2733 
Q 2419 3097 1959 3097 
z
M 1959 3584 
Q 2709 3584 3137 3096 
Q 3566 2609 3566 1747 
Q 3566 888 3137 398 
Q 2709 -91 1959 -91 
Q 1206 -91 779 398 
Q 353 888 353 1747 
Q 353 2609 779 3096 
Q 1206 3584 1959 3584 
z
" transform="scale(0.015625)"/>
      <path id="DejaVuSans-62" d="M 3116 1747 
Q 3116 2381 2855 2742 
Q 2594 3103 2138 3103 
Q 1681 3103 1420 2742 
Q 1159 2381 1159 1747 
Q 1159 1113 1420 752 
Q 1681 391 2138 391 
Q 2594 391 2855 752 
Q 3116 1113 3116 1747 
z
M 1159 2969 
Q 1341 3281 1617 3432 
Q 1894 3584 2278 3584 
Q 2916 3584 3314 3078 
Q 3713 2572 3713 1747 
Q 3713 922 3314 415 
Q 2916 -91 2278 -91 
Q 1894 -91 1617 61 
Q 1341 213 1159 525 
L 1159 0 
L 581 0 
L 581 4863 
L 1159 4863 
L 1159 2969 
z
" transform="scale(0.015625)"/>
      <path id="DejaVuSans-79" d="M 2059 -325 
Q 1816 -950 1584 -1140 
Q 1353 -1331 966 -1331 
L 506 -1331 
L 506 -850 
L 844 -850 
Q 1081 -850 1212 -737 
Q 1344 -625 1503 -206 
L 1606 56 
L 191 3500 
L 800 3500 
L 1894 763 
L 2988 3500 
L 3597 3500 
L 2059 -325 
z
" transform="scale(0.015625)"/>
      <path id="DejaVuSans-44" d="M 1259 4147 
L 1259 519 
L 2022 519 
Q 2988 519 3436 956 
Q 3884 1394 3884 2338 
Q 3884 3275 3436 3711 
Q 2988 4147 2022 4147 
L 1259 4147 
z
M 628 4666 
L 1925 4666 
Q 3281 4666 3915 4102 
Q 4550 3538 4550 2338 
Q 4550 1131 3912 565 
Q 3275 0 1925 0 
L 628 0 
L 628 4666 
z
" transform="scale(0.015625)"/>
     </defs>
     <use xlink:href="#DejaVuSans-49"/>
     <use xlink:href="#DejaVuSans-73" transform="translate(29.492188 0)"/>
     <use xlink:href="#DejaVuSans-6f" transform="translate(81.591797 0)"/>
     <use xlink:href="#DejaVuSans-6c" transform="translate(142.773438 0)"/>
     <use xlink:href="#DejaVuSans-61" transform="translate(170.556641 0)"/>
     <use xlink:href="#DejaVuSans-74" transform="translate(231.835938 0)"/>
     <use xlink:href="#DejaVuSans-69" transform="translate(271.044922 0)"/>
     <use xlink:href="#DejaVuSans-6f" transform="translate(298.828125 0)"/>
     <use xlink:href="#DejaVuSans-6e" transform="translate(360.009766 0)"/>
     <use xlink:href="#DejaVuSans-20" transform="translate(423.388672 0)"/>
     <use xlink:href="#DejaVuSans-62" transform="translate(455.175781 0)"/>
     <use xlink:href="#DejaVuSans-79" transform="translate(518.652344 0)"/>
     <use xlink:href="#DejaVuSans-20" transform="translate(577.832031 0)"/>
     <use xlink:href="#DejaVuSans-44" transform="translate(609.619141 0)"/>
     <use xlink:href="#DejaVuSans-69" transform="translate(686.621094 0)"/>
     <use xlink:href="#DejaVuSans-73" transform="translate(714.404297 0)"/>
     <use xlink:href="#DejaVuSans-74" transform="translate(766.503906 0)"/>
     <use xlink:href="#DejaVuSans-61" transform="translate(805.712891 0)"/>
     <use xlink:href="#DejaVuSans-6e" transform="translate(866.992188 0)"/>
     <use xlink:href="#DejaVuSans-63" transform="translate(930.371094 0)"/>
     <use xlink:href="#DejaVuSans-65" transform="translate(985.351562 0)"/>
    </g>
   </g>
  </g>
 </g>
 <defs>
  <clipPath id="p7b708b3d36">
   <rect x="57.6" y="41.472" width="357.12" height="266.112"/>
  </clipPath>
 </defs>
</svg>
